STARTFONT 2.3
FONT -FontForge-Monoton-Book-R-Normal--16-160-72-72-P-108-ISO10646-1
SIZE 16 72 72  4
FONTBOUNDINGBOX 31 26 -3 -7
COMMENT "Generated by fontforge, http://fontforge.sourceforge.net"
COMMENT "Copyright (c) 2011 by vernon adams. All rights reserved."
STARTPROPERTIES 41
FOUNDRY "FontForge"
FAMILY_NAME "Monoton"
WEIGHT_NAME "Book"
SLANT "R"
SETWIDTH_NAME "Normal"
ADD_STYLE_NAME ""
PIXEL_SIZE 16
POINT_SIZE 160
RESOLUTION_X 72
RESOLUTION_Y 72
SPACING "P"
AVERAGE_WIDTH 108
CHARSET_REGISTRY "ISO10646"
CHARSET_ENCODING "1"
FONTNAME_REGISTRY ""
CHARSET_COLLECTIONS "ISO8859-2 ISO8859-9 ISO8859-4 ISO10646-1"
BITS_PER_PIXEL 4
FONT_NAME "Monoton-Regular"
FACE_NAME "Monoton"
COPYRIGHT "Copyright (c) 2011 by vernon adams. All rights reserved."
FONT_VERSION "1.000"
FONT_ASCENT 13
FONT_DESCENT 3
UNDERLINE_POSITION -1
UNDERLINE_THICKNESS 1
X_HEIGHT 11
CAP_HEIGHT 12
DEFAULT_CHAR 1
RAW_ASCENT 799
RAW_DESCENT 200
NORM_SPACE 2
RELATIVE_WEIGHT 40
RELATIVE_SETWIDTH 50
SUPERSCRIPT_X 0
SUPERSCRIPT_Y 5
SUPERSCRIPT_SIZE 9
SUBSCRIPT_X 0
SUBSCRIPT_Y 1
SUBSCRIPT_SIZE 9
AVG_LOWERCASE_WIDTH 115
AVG_UPPERCASE_WIDTH 126
ENDPROPERTIES
CHARS 372
STARTCHAR glyph1.dup1
ENCODING 0
SWIDTH 108 0
DWIDTH 2 0
BBX 1 1 0 0
BITMAP
00
ENDCHAR
STARTCHAR uni0002
ENCODING 2
SWIDTH 108 0
DWIDTH 2 0
BBX 1 1 0 0
BITMAP
00
ENDCHAR
STARTCHAR uni0009
ENCODING 9
SWIDTH 108 0
DWIDTH 2 0
BBX 1 1 0 0
BITMAP
00
ENDCHAR
STARTCHAR uni000A
ENCODING 10
SWIDTH 108 0
DWIDTH 2 0
BBX 1 1 0 0
BITMAP
00
ENDCHAR
STARTCHAR uni000D
ENCODING 13
SWIDTH 108 0
DWIDTH 2 0
BBX 1 1 0 0
BITMAP
00
ENDCHAR
STARTCHAR space
ENCODING 32
SWIDTH 108 0
DWIDTH 2 0
BBX 1 1 0 0
BITMAP
00
ENDCHAR
STARTCHAR exclam
ENCODING 33
SWIDTH 336 0
DWIDTH 5 0
BBX 5 14 0 -1
BITMAP
466880
477880
477880
477880
477880
477880
477880
477880
477880
244550
144430
277740
277740
288860
ENDCHAR
STARTCHAR quotedbl
ENCODING 34
SWIDTH 538 0
DWIDTH 9 0
BBX 8 6 0 7
BITMAP
56670888
57770888
57770888
57770888
57770888
11110111
ENDCHAR
STARTCHAR numbersign
ENCODING 35
SWIDTH 1014 0
DWIDTH 16 0
BBX 16 15 0 -1
BITMAP
0000033340044310
0000097650099800
0000099810378900
0038779978966887
0058867988986785
0088976886998682
0000998103789000
0002799006667000
0005678009864000
0228765219982200
0769985777896710
3877997896688700
5886798898678500
0087650099800000
0088710368800000
ENDCHAR
STARTCHAR dollar
ENCODING 36
SWIDTH 686 0
DWIDTH 11 0
BBX 11 19 0 -3
BITMAP
000020100000
000081800000
000237441000
008766768810
095977679630
37A787786200
6777A7760000
6677A7630000
36987767A100
095977795A00
02A667789730
000478A77660
000666A77760
016877789730
369667696900
188676679100
001568530000
000081800000
000030300000
ENDCHAR
STARTCHAR percent
ENCODING 37
SWIDTH 1504 0
DWIDTH 24 0
BBX 24 16 0 -2
BITMAP
000267400000000000000000
0097676A2000887100000000
085A6787A101799000000000
37A787986705678000000000
7667AA669908765000000000
877684689909981039999400
567978867827990577998760
1896996A7456681896886982
048799968097657669779667
002988950099819876666789
000000000278909766AA6678
000000000666805689779865
0000000009764009697696A0
000000000998100186776910
000000003789000004884000
000000001111000000000000
ENDCHAR
STARTCHAR ampersand
ENCODING 38
SWIDTH 1029 0
DWIDTH 16 0
BBX 16 13 0 0
BITMAP
0028888880888710
0396988880888810
0987888880888810
4689688880888810
6777900000888810
4679888887888868
0995C88887888868
478A788887888868
6677900000888710
5689788885986695
1A86888885668785
05979888850A6985
0029988885007985
ENDCHAR
STARTCHAR quotesingle
ENCODING 39
SWIDTH 257 0
DWIDTH 4 0
BBX 4 6 0 7
BITMAP
5667
5777
5777
5777
5777
1111
ENDCHAR
STARTCHAR parenleft
ENCODING 40
SWIDTH 410 0
DWIDTH 7 0
BBX 6 16 0 -2
BITMAP
000268
007867
076A77
189687
467897
676780
677780
677780
677780
677780
666790
378969
097688
039799
002987
000002
ENDCHAR
STARTCHAR parenright
ENCODING 41
SWIDTH 408 0
DWIDTH 7 0
BBX 6 16 0 -2
BITMAP
474000
366A30
378792
369768
396899
008888
008888
008888
008888
008888
018888
496689
487966
499690
379700
110000
ENDCHAR
STARTCHAR asterisk
ENCODING 42
SWIDTH 664 0
DWIDTH 11 0
BBX 10 11 0 1
BITMAP
0000222000
0001788000
0394788590
087878A685
396A497869
01C4AF5880
3969598879
187768A695
0394789681
0001788000
0000233000
ENDCHAR
STARTCHAR plus
ENCODING 43
SWIDTH 601 0
DWIDTH 10 0
BBX 9 9 0 2
BITMAP
0001111000
0017888000
0017888000
389788A880
389788A880
389788A880
0017888000
0017888000
0001111000
ENDCHAR
STARTCHAR comma
ENCODING 44
SWIDTH 252 0
DWIDTH 4 0
BBX 4 6 0 -3
BITMAP
5555
6777
2566
3A55
2791
1200
ENDCHAR
STARTCHAR hyphen
ENCODING 45
SWIDTH 473 0
DWIDTH 8 0
BBX 7 3 0 5
BITMAP
28888880
28888880
28888880
ENDCHAR
STARTCHAR period
ENCODING 46
SWIDTH 255 0
DWIDTH 4 0
BBX 4 3 0 0
BITMAP
3884
3884
3884
ENDCHAR
STARTCHAR slash
ENCODING 47
SWIDTH 447 0
DWIDTH 7 0
BBX 7 15 0 -2
BITMAP
00036880
00076670
00098630
00099800
00378900
00766700
00986300
00998000
03789000
07667000
09863000
09980000
37890000
76670000
54320000
ENDCHAR
STARTCHAR zero
ENCODING 48
SWIDTH 843 0
DWIDTH 14 0
BBX 13 15 0 -1
BITMAP
00001576300000
00088666693000
00959776878400
06597866968910
099769897A7660
36799100767890
66778000189880
76777000089880
66778000189880
46799000667890
08976978797670
07588766968910
00959676787500
00087666694000
00002687400000
ENDCHAR
STARTCHAR one
ENCODING 49
SWIDTH 426 0
DWIDTH 7 0
BBX 7 13 0 0
BITMAP
58888810
58888810
58AAA910
00888720
00888720
00888720
00888720
00888720
00888720
00888720
00888720
00888720
00888720
ENDCHAR
STARTCHAR two
ENCODING 50
SWIDTH 583 0
DWIDTH 9 0
BBX 9 14 0 0
BITMAP
1467641000
477777A600
3777789840
18777A5790
0887858890
0000477890
0001998670
0009768A00
00677A8300
0389867000
0875680000
3888888820
3888888820
3888888820
ENDCHAR
STARTCHAR three
ENCODING 51
SWIDTH 612 0
DWIDTH 10 0
BBX 10 15 0 -1
BITMAP
1467751000
4777768600
3777779660
1877796990
0787789873
0036698774
0037669981
0037779780
0037796991
0048889864
0776699873
1877786981
377777A670
4777768700
1578861000
ENDCHAR
STARTCHAR four
ENCODING 52
SWIDTH 622 0
DWIDTH 10 0
BBX 10 13 0 0
BITMAP
0003798640
0009668A00
0028985600
0086699000
0199757000
0767981550
1996590880
4577531660
4888888884
4888888884
4888888884
0000000880
0000000880
ENDCHAR
STARTCHAR five
ENCODING 53
SWIDTH 691 0
DWIDTH 11 0
BBX 11 14 0 -1
BITMAP
188888888400
188888888400
19AA88888400
278800000000
278878850000
27887766A200
278877676A10
278877697660
123343966780
000666976780
016877888650
3696677A5900
188676689100
002688620000
ENDCHAR
STARTCHAR six
ENCODING 54
SWIDTH 781 0
DWIDTH 13 0
BBX 13 15 0 -1
BITMAP
00003676300000
00397677695000
04878776886100
0986A777941000
368A6878300000
67679688610000
67778777696000
67778776697500
67778777868900
66779634898810
46797767798800
0A969777957900
05888777888300
004967766A4000
00004787400000
ENDCHAR
STARTCHAR seven
ENCODING 55
SWIDTH 631 0
DWIDTH 10 0
BBX 10 13 0 0
BITMAP
5888886678
5888897666
5888699872
0000278990
0000666790
0000976660
0000998730
0002789900
0006668900
0008766700
0009987300
0027899000
0056689000
ENDCHAR
STARTCHAR eight
ENCODING 56
SWIDTH 808 0
DWIDTH 13 0
BBX 13 15 0 -1
BITMAP
00026787510000
00886677688000
096977777A6800
27A7877787A820
6778A777987760
6668A776977760
37A7877669B730
09596777796900
27A86677879820
6777A788986660
6768A666A87760
37977777789720
085966776A5800
00876777679100
00027888730000
ENDCHAR
STARTCHAR nine
ENCODING 57
SWIDTH 782 0
DWIDTH 13 0
BBX 12 15 0 -1
BITMAP
000157751000
008966768810
086A777796A0
379787787867
766897796789
876793358988
468977748888
0A6867748888
019778748888
000388858988
000076796789
001787788966
046966779590
019767767810
000268862000
ENDCHAR
STARTCHAR colon
ENCODING 58
SWIDTH 262 0
DWIDTH 4 0
BBX 4 8 0 2
BITMAP
2884
2773
2773
1442
0110
2884
2884
2884
ENDCHAR
STARTCHAR semicolon
ENCODING 59
SWIDTH 261 0
DWIDTH 4 0
BBX 4 10 0 0
BITMAP
2884
2773
2773
1442
0000
4778
4778
1468
2955
2980
ENDCHAR
STARTCHAR less
ENCODING 60
SWIDTH 670 0
DWIDTH 11 0
BBX 11 13 0 0
BITMAP
000000000210
000000059710
000028968910
005976976910
496896896710
397697697200
389689700000
369767797100
5C4886886810
016977977910
000038868810
000000169710
000000000310
ENDCHAR
STARTCHAR equal
ENCODING 61
SWIDTH 473 0
DWIDTH 8 0
BBX 7 8 0 2
BITMAP
28888880
27777760
27777760
14444430
01111110
27777760
28888880
28888880
ENDCHAR
STARTCHAR greater
ENCODING 62
SWIDTH 670 0
DWIDTH 11 0
BBX 11 13 0 0
BITMAP
210000000000
289400000000
397797100000
386896894000
377977976C20
038868489610
000189769710
028968967910
376976986920
396896795000
397697200000
289400000000
220000000000
ENDCHAR
STARTCHAR question
ENCODING 63
SWIDTH 693 0
DWIDTH 11 0
BBX 11 14 0 0
BITMAP
001577510000
188676698000
4697677A6900
026877879640
000777976780
001112866780
047797697660
047797667910
047798769300
047798861000
024450000000
058870000000
058870000000
058870000000
ENDCHAR
STARTCHAR at
ENCODING 64
SWIDTH 1076 0
DWIDTH 17 0
BBX 17 17 0 -2
BITMAP
000000001000000000
000017988997100000
000596898896860000
006797799976957000
03796A302028795600
097691897893479710
279909698979286660
657837979976736790
757667680377817880
757846894478817880
46991A787578A86880
0A8672977497769560
076A78124249666900
00A6A6998841674000
001977999950000000
000049977860000000
000000012100000000
ENDCHAR
STARTCHAR A
ENCODING 65
SWIDTH 936 0
DWIDTH 15 0
BBX 15 13 0 0
BITMAP
00000B5688000000
0000378997300000
0000859766800000
0001895689800000
0006678997650000
0009866866890000
0037998389972000
0087679097668000
0099867576899000
0567995759976500
0986687778668900
2799857775799720
8667900000976680
ENDCHAR
STARTCHAR B
ENCODING 66
SWIDTH 862 0
DWIDTH 14 0
BBX 14 13 0 0
BITMAP
4A888888897100
46A88888996910
47698888878690
47788888868971
477880000A9773
47789888979872
477898889D4890
4778988886A981
477880000A8763
47789888969972
477898888877A0
47789888896A30
47789888898100
ENDCHAR
STARTCHAR C
ENCODING 67
SWIDTH 852 0
DWIDTH 14 0
BBX 14 15 0 -1
BITMAP
00000367620000
00049767779300
00678867687850
04795977795971
09858797979510
36897400043000
76679000000000
86676000000000
76678000000000
46898300043000
09868886888510
04796977796971
00778867688760
00049667779400
00000478730000
ENDCHAR
STARTCHAR D
ENCODING 68
SWIDTH 886 0
DWIDTH 14 0
BBX 14 13 0 0
BITMAP
4A888888893000
46A88888877600
4769888886A650
47788888686990
47788000389765
47788000086668
47788000066679
47788000086668
4778800028A765
47788888776991
477A8888869660
46A88888877800
4A888888894000
ENDCHAR
STARTCHAR E
ENCODING 69
SWIDTH 706 0
DWIDTH 11 0
BBX 11 13 0 0
BITMAP
4668B8888860
4778B8888860
4778B8888860
477880000000
477880000000
4778B8860000
4778B8860000
4778B8860000
477880000000
477880000000
4778B8888860
4778B8888860
4778B8888860
ENDCHAR
STARTCHAR F
ENCODING 70
SWIDTH 683 0
DWIDTH 11 0
BBX 11 13 0 0
BITMAP
4668B8888830
4778B8888830
4778B8888830
477880000000
477880000000
4778A5555500
4778B7777700
4778B7777700
4778B8888800
477880000000
477880000000
477880000000
477880000000
ENDCHAR
STARTCHAR G
ENCODING 71
SWIDTH 908 0
DWIDTH 15 0
BBX 14 15 0 -1
BITMAP
00000367620000
00049767779300
00678867687850
04795977795971
09858797979510
36897400043000
76679000000000
87676000016666
77678000018888
47899200018888
09867886798888
05696966798888
00868877788888
00059667778888
00000478741000
ENDCHAR
STARTCHAR H
ENCODING 72
SWIDTH 901 0
DWIDTH 14 0
BBX 14 13 0 0
BITMAP
46688000046688
47788000047788
47788000047788
47788000047788
47788000047788
4778B8888A7788
4778B8888A7788
4778B8888A7788
47788000047788
47788000047788
47788000047788
47788000047788
47788000047788
ENDCHAR
STARTCHAR I
ENCODING 73
SWIDTH 338 0
DWIDTH 5 0
BBX 5 13 0 0
BITMAP
466880
477880
477880
477880
477880
477880
477880
477880
477880
477880
477880
477880
477880
ENDCHAR
STARTCHAR J
ENCODING 74
SWIDTH 434 0
DWIDTH 7 0
BBX 7 14 0 -1
BITMAP
00886640
00887740
00887740
00887740
00887740
00887740
00887740
00887740
00887640
47799720
47968900
47798400
46695000
58610000
ENDCHAR
STARTCHAR K
ENCODING 75
SWIDTH 815 0
DWIDTH 13 0
BBX 13 13 0 0
BITMAP
46688000886560
47788006679910
47788019976700
47788076799100
47788199767000
47788767990000
47788996580000
47788767890000
47788189766000
47788076799000
47788019976600
47788007679910
47788001997670
ENDCHAR
STARTCHAR L
ENCODING 76
SWIDTH 604 0
DWIDTH 10 0
BBX 10 13 0 0
BITMAP
4668800000
4778800000
4778800000
4778800000
4778800000
4778800000
4778800000
4778800000
4778800000
4778800000
4778B88881
4778B88881
4778B88881
ENDCHAR
STARTCHAR M
ENCODING 77
SWIDTH 920 0
DWIDTH 15 0
BBX 14 13 0 0
BITMAP
4997200000657C
4C67900001997C
45997300076798
46967900189778
47799740866988
47796892898688
47789868668888
47787689784888
47788986788888
47788445818888
47788000008888
47788000008888
47788000008888
ENDCHAR
STARTCHAR N
ENCODING 78
SWIDTH 877 0
DWIDTH 14 0
BBX 14 13 0 0
BITMAP
4A866800087664
4A689740088774
45975890088774
47889867088774
47696798288774
47789867988774
47787699678774
47788976898774
47788289769674
477880768A8774
47788009867A54
477880047986A4
477880008669A4
ENDCHAR
STARTCHAR O
ENCODING 79
SWIDTH 933 0
DWIDTH 15 0
BBX 15 15 0 -1
BITMAP
0000036762000000
0004976667930000
0067886668775000
0479597779597300
0985879796957900
3689740004698720
7667900000976660
8667600000776670
7667800000976660
4689830004798730
0986888697858900
0479697779597400
0077886668876000
0004966666940000
0000047873000000
ENDCHAR
STARTCHAR P
ENCODING 80
SWIDTH 850 0
DWIDTH 14 0
BBX 14 13 0 0
BITMAP
4A888888895000
46A88888986900
47698888869560
47788888877990
47788000198971
47788344589981
477886777868A0
47788677669850
47788888869800
47788888883000
47788000000000
47788000000000
47788000000000
ENDCHAR
STARTCHAR Q
ENCODING 81
SWIDTH 937 0
DWIDTH 15 0
BBX 15 16 0 -2
BITMAP
0000036762000000
0004976667930000
0067886668775000
0479597779597300
0985879796957900
3689740004698720
7667900000976660
8667600000776670
7667800049976660
4689830875798730
0986888897858900
0479697779597400
0077886668876000
0004966666968100
0000047873775200
0000000000340000
ENDCHAR
STARTCHAR R
ENCODING 82
SWIDTH 843 0
DWIDTH 14 0
BBX 13 13 0 0
BITMAP
4A888888895000
46A88888986900
4769888886A660
47788888877990
47788000198980
47789888968990
47789777796790
47789777788920
4778977777B300
4778966BBA8100
47788008877600
47788004778900
47788000999820
ENDCHAR
STARTCHAR S
ENCODING 83
SWIDTH 682 0
DWIDTH 11 0
BBX 11 15 0 -1
BITMAP
000257641000
019766768700
095976679630
479877796100
7777A7760000
7676A7630000
468977679100
096877795900
02A667879720
000478A87650
000666A87750
01787777A720
469667695800
188676679000
001588630000
ENDCHAR
STARTCHAR T
ENCODING 84
SWIDTH 591 0
DWIDTH 9 0
BBX 9 13 0 0
BITMAP
4888888880
4888888880
489999A880
0047788000
0047788000
0047788000
0047788000
0047788000
0047788000
0047788000
0047788000
0047788000
0047788000
ENDCHAR
STARTCHAR U
ENCODING 85
SWIDTH 905 0
DWIDTH 14 0
BBX 14 14 0 -1
BITMAP
56678000026788
57778000027888
57778000027888
57778000027888
57778000027888
57778000027888
57778000027888
57788000036898
37898200086678
09956976959865
066A6866787790
00869777696920
00069677679100
00000578620000
ENDCHAR
STARTCHAR V
ENCODING 86
SWIDTH 940 0
DWIDTH 15 0
BBX 15 13 0 0
BITMAP
7667800000876680
2799820001898730
0986670007668900
0567990009876600
0099864036898100
0086679087678000
0027998289873000
0009866867890000
0006678987660000
0001994789810000
0000869767800000
0000378986300000
00000C6799000000
ENDCHAR
STARTCHAR W
ENCODING 87
SWIDTH 1161 0
DWIDTH 19 0
BBX 19 13 0 0
BITMAP
76667008886500888720
46789037899903789900
1899817667B907667800
0987659876D649876500
07667889987688997100
046886679B69B6799000
00898866699996668000
009849876B97B8764000
00766899896689981000
00379678946D67890000
00098766709B76670000
00099986309998630000
00067898006789800000
ENDCHAR
STARTCHAR X
ENCODING 88
SWIDTH 876 0
DWIDTH 14 0
BBX 14 13 0 0
BITMAP
65797300757972
098579028A7680
03798669768910
00867976897400
00199499669000
00056A66991000
00007798680000
00019867A65000
00086798599100
00379768966800
009758A6689740
06689740975890
28976800389767
ENDCHAR
STARTCHAR Y
ENCODING 89
SWIDTH 789 0
DWIDTH 13 0
BBX 13 13 0 0
BITMAP
76666000887720
18898004778800
08777608877300
02789847788000
00877698774000
00278778880000
00087887740000
00038788800000
0000B777600000
00008877400000
00008877400000
00008877400000
00008877400000
ENDCHAR
STARTCHAR Z
ENCODING 90
SWIDTH 854 0
DWIDTH 14 0
BBX 13 13 0 0
BITMAP
388888888889D0
38888888885960
38888888287870
38888834969690
00000187878780
00003969696910
00087878786000
03969696920000
47878786000000
29696926888880
28786488888880
36958888888880
4D988888888880
ENDCHAR
STARTCHAR bracketleft
ENCODING 91
SWIDTH 320 0
DWIDTH 5 0
BBX 5 16 0 -2
BITMAP
288850
467740
478740
477A30
477800
477800
477800
477800
477800
477800
477800
477800
477B60
47B860
497740
022210
ENDCHAR
STARTCHAR backslash
ENCODING 92
SWIDTH 448 0
DWIDTH 7 0
BBX 7 15 0 -2
BITMAP
76650000
46790000
18990000
09972000
08766000
04679000
01899000
00997200
00876600
00467900
00189900
00099720
00087660
00046790
00014440
ENDCHAR
STARTCHAR bracketright
ENCODING 93
SWIDTH 319 0
DWIDTH 5 0
BBX 5 16 0 -2
BITMAP
488830
377560
377760
297760
067760
067760
067760
067760
067760
067760
067760
067760
4A6760
48A660
377860
122210
ENDCHAR
STARTCHAR asciicircum
ENCODING 94
SWIDTH 475 0
DWIDTH 8 0
BBX 7 7 0 5
BITMAP
00122000
006B8100
00966600
03778900
08648730
08903680
55700880
ENDCHAR
STARTCHAR underscore
ENCODING 95
SWIDTH 511 0
DWIDTH 8 0
BBX 8 3 0 -3
BITMAP
28888884
28888884
28888884
ENDCHAR
STARTCHAR grave
ENCODING 96
SWIDTH 472 0
DWIDTH 8 0
BBX 7 4 0 11
BITMAP
15950000
28869500
00188670
00001600
ENDCHAR
STARTCHAR a
ENCODING 97
SWIDTH 832 0
DWIDTH 13 0
BBX 13 13 0 -1
BITMAP
00004787400000
003A77776A3000
03978776889400
0A76A777A68A00
478A69686A7650
77779000866780
86766000477880
76679000477880
27885878777880
08688878777880
01969777777880
00079777677880
00000343000000
ENDCHAR
STARTCHAR b
ENCODING 98
SWIDTH 720 0
DWIDTH 12 0
BBX 11 12 0 0
BITMAP
144444431000
473333348800
42A777779270
427C88896990
427822239990
427977777590
42798889B370
427988896890
427800009890
427988896790
427988887750
427888899500
ENDCHAR
STARTCHAR c
ENCODING 99
SWIDTH 736 0
DWIDTH 12 0
BBX 12 13 0 -1
BITMAP
000169887200
003968886860
038876876963
0986A6769630
468A67356100
766790000000
876760000000
766790001000
279959696400
09689777A640
0196A6668783
001976767930
000027873000
ENDCHAR
STARTCHAR d
ENCODING 100
SWIDTH 833 0
DWIDTH 13 0
BBX 13 12 0 0
BITMAP
14444443100000
48777777892000
47A77777978400
477C8888968910
4778A8896A7660
47788000866890
47788000467990
47788000976790
47788888698650
477A8888776A00
46A8888896A200
4A888889971000
ENDCHAR
STARTCHAR e
ENCODING 101
SWIDTH 666 0
DWIDTH 11 0
BBX 10 12 0 0
BITMAP
1222344444
4778B77777
4778B77777
4778B88888
4778911110
4778B88886
4778B88886
4778B88886
4778800000
4778B88888
4778B88888
4778B88888
ENDCHAR
STARTCHAR f
ENCODING 102
SWIDTH 625 0
DWIDTH 10 0
BBX 10 12 0 0
BITMAP
1222344442
4778B77773
4778B77773
4778B88884
4778800000
4778B88881
4778B88881
4778B77771
4778911110
4778800000
4778800000
4778800000
ENDCHAR
STARTCHAR g
ENCODING 103
SWIDTH 827 0
DWIDTH 13 0
BBX 13 13 0 -1
BITMAP
00016988720000
00396888686000
03887687696300
0986A676963000
468A6735610000
76679000000000
87676000455560
76679000577780
27995968C77780
09689777B77780
0196A667A77780
00197676977780
00002787400000
ENDCHAR
STARTCHAR h
ENCODING 104
SWIDTH 830 0
DWIDTH 13 0
BBX 13 12 0 0
BITMAP
12222000122220
47788000677780
47788000677780
47788000677780
4778A555977780
4778B777A77780
4778B777A77780
4778B888A77780
47788000677780
47788000677780
47788000677780
47788000677780
ENDCHAR
STARTCHAR i
ENCODING 105
SWIDTH 337 0
DWIDTH 5 0
BBX 5 12 0 0
BITMAP
122220
477880
477880
477880
477880
477880
477880
477880
477880
477880
477880
477880
ENDCHAR
STARTCHAR j
ENCODING 106
SWIDTH 393 0
DWIDTH 6 0
BBX 6 14 0 -2
BITMAP
012222
057778
057778
057778
057778
057778
057778
057778
057678
3A8667
477973
46A580
577900
583000
ENDCHAR
STARTCHAR k
ENCODING 107
SWIDTH 801 0
DWIDTH 13 0
BBX 13 12 0 0
BITMAP
12222000221120
47788004789720
47788009866800
47788056898100
47788199767000
47788767991000
47788986680000
47788667981000
47788098668000
47788046898200
47788009767900
47788003799730
ENDCHAR
STARTCHAR l
ENCODING 108
SWIDTH 583 0
DWIDTH 9 0
BBX 9 12 0 0
BITMAP
1222200000
4778800000
4778800000
4778800000
4778800000
4778800000
4778800000
4778800000
4778800000
4778B88870
4778B88870
4778B88870
ENDCHAR
STARTCHAR m
ENCODING 109
SWIDTH 1167 0
DWIDTH 19 0
BBX 18 12 0 0
BITMAP
000489893068898200
019678878D78886860
0959788796C6877974
289867778997769689
576892399778247999
577780088774008888
577780088774008888
577780088774008888
577780088774008888
577780088774008888
577780088774008888
577780088774008888
ENDCHAR
STARTCHAR n
ENCODING 110
SWIDTH 787 0
DWIDTH 13 0
BBX 12 12 0 0
BITMAP
122212000222
4C857A000888
487996600888
46A669910888
478897680888
476967A82888
477899669788
477856897588
477809758A78
477803798678
477800866999
47780018976C
ENDCHAR
STARTCHAR o
ENCODING 111
SWIDTH 833 0
DWIDTH 13 0
BBX 13 13 0 -1
BITMAP
00016988710000
00396888686000
03887687696600
0986A67696A810
468A6735897670
76679000567890
87676000378880
76679000766890
279959696A8660
09689777A68900
0196A666988300
00197676693000
00002787400000
ENDCHAR
STARTCHAR p
ENCODING 112
SWIDTH 781 0
DWIDTH 13 0
BBX 12 12 0 0
BITMAP
144444442000
487777767820
47A777779691
477C88889768
4778A8896899
477886677889
477886779679
477886777975
477886766960
477887886100
477880000000
477880000000
ENDCHAR
STARTCHAR q
ENCODING 113
SWIDTH 788 0
DWIDTH 13 0
BBX 12 14 0 -2
BITMAP
000024444443
00397777776A
0487977777A8
198598888988
567978897888
876770018888
866780018888
468968868888
0A6788868888
03A699868888
002888868888
000000018888
000000018888
000000015666
ENDCHAR
STARTCHAR r
ENCODING 114
SWIDTH 831 0
DWIDTH 13 0
BBX 13 12 0 0
BITMAP
14444444310000
48777777688100
47A77777796900
477C8888888570
4778A888967890
47789888967880
47789777797680
47789777787A20
4778977766A400
4778978BBA9000
47788009998100
47788008777700
ENDCHAR
STARTCHAR s
ENCODING 115
SWIDTH 683 0
DWIDTH 11 0
BBX 11 13 0 -1
BITMAP
000478751000
03A677778800
198877679630
667954586100
766811000000
479678897000
087788885900
003888879640
001000076660
046988879640
468877896900
059877798100
000134300000
ENDCHAR
STARTCHAR t
ENCODING 116
SWIDTH 588 0
DWIDTH 9 0
BBX 9 12 0 0
BITMAP
2444444430
3777777760
3777777760
48999AA880
0047788000
0047788000
0047788000
0047788000
0047788000
0047788000
0047788000
0047788000
ENDCHAR
STARTCHAR u
ENCODING 117
SWIDTH 795 0
DWIDTH 13 0
BBX 13 13 0 -1
BITMAP
12222000222200
57778000888810
57778000888810
57778000888810
57778000888810
57778000888810
57778000888810
57789001898900
27996969678900
09769778796600
02978666959000
00297776780000
00004786200000
ENDCHAR
STARTCHAR v
ENCODING 118
SWIDTH 855 0
DWIDTH 14 0
BBX 14 12 0 0
BITMAP
22112000022221
66789000289972
18987300766890
09767800997650
04789814689900
00997669766800
00767868997200
00189876689000
00097499765000
00047868990000
00009976680000
00007899720000
ENDCHAR
STARTCHAR w
ENCODING 119
SWIDTH 1129 0
DWIDTH 18 0
BBX 18 13 0 -1
BITMAP
122220022220022221
577780088880087776
577780088880087776
577780088880087776
577780088880087776
577780088880087776
577780088880087776
576780088890087676
4679789579A9879764
0995988887C8895991
058887797B97789750
004A76789887779500
000034410013530000
ENDCHAR
STARTCHAR x
ENCODING 120
SWIDTH 790 0
DWIDTH 13 0
BBX 13 12 0 0
BITMAP
21232102123210
37A76919857A00
0857A6957A7300
01A8587A758000
00477A85891000
0008858A650000
00038A76A00000
000A7699570000
00759967982000
028966A866A000
09669875896600
6698570A759910
ENDCHAR
STARTCHAR y
ENCODING 121
SWIDTH 733 0
DWIDTH 12 0
BBX 12 12 0 0
BITMAP
222210022222
667780088872
088873477880
056788887730
008876778800
005679877400
000867888000
0005B8774000
000098880000
000088880000
000088880000
000088880000
ENDCHAR
STARTCHAR z
ENCODING 122
SWIDTH 714 0
DWIDTH 11 0
BBX 11 12 0 0
BITMAP
144444213210
277776966A70
2777786A8560
38888A858900
0000858A7300
00037A768000
000A75991000
007599650000
029967900000
0966A8588870
56A858888870
5858A6888870
ENDCHAR
STARTCHAR braceleft
ENCODING 123
SWIDTH 396 0
DWIDTH 6 0
BBX 6 18 0 -4
BITMAP
000277
006866
038966
076694
087740
087740
087740
167730
479710
496900
599720
087730
087740
087740
0766A6
028976
005976
000155
ENDCHAR
STARTCHAR bar
ENCODING 124
SWIDTH 266 0
DWIDTH 4 0
BBX 4 15 0 -2
BITMAP
4668
4778
4778
4778
4778
4778
4778
4778
4778
4778
4778
4778
4778
4778
3556
ENDCHAR
STARTCHAR braceright
ENCODING 125
SWIDTH 396 0
DWIDTH 6 0
BBX 6 18 0 -4
BITMAP
475000
476A10
468670
267990
009880
008880
008880
008858
005788
007698
009860
008880
008880
009880
487890
479670
477900
353000
ENDCHAR
STARTCHAR asciitilde
ENCODING 126
SWIDTH 665 0
DWIDTH 11 0
BBX 11 3 0 9
BITMAP
069888837610
277888887900
665588889500
ENDCHAR
STARTCHAR uni00A0
ENCODING 160
SWIDTH 108 0
DWIDTH 2 0
BBX 1 1 0 0
BITMAP
00
ENDCHAR
STARTCHAR exclamdown
ENCODING 161
SWIDTH 336 0
DWIDTH 5 0
BBX 5 14 0 -1
BITMAP
466880
477880
477880
477880
477880
477880
477880
477880
477880
244550
144430
277740
277740
288860
ENDCHAR
STARTCHAR cent
ENCODING 162
SWIDTH 708 0
DWIDTH 11 0
BBX 11 17 0 -2
BITMAP
000003120000
000008450000
000011310000
001986779500
029597788680
096798796920
379A59986100
766790021000
877770000000
667891052000
289868969200
085979896940
009589897850
000697789200
000005130000
000008450000
000003120000
ENDCHAR
STARTCHAR sterling
ENCODING 163
SWIDTH 689 0
DWIDTH 11 0
BBX 11 14 0 0
BITMAP
000157751000
008766768810
085977679640
18A787787200
477897770000
577780000000
577798888100
577797777100
577797777100
577793333000
577780000000
5777C8888100
5777C8888100
5777C8888100
ENDCHAR
STARTCHAR currency
ENCODING 164
SWIDTH 715 0
DWIDTH 11 0
BBX 11 13 0 -1
BITMAP
037300009400
568912176970
1A6887898750
02B598979600
037900046900
067500008900
077400008900
047800027900
01A685697600
096A66689830
569846576880
05740000A500
002000001000
ENDCHAR
STARTCHAR yen
ENCODING 165
SWIDTH 796 0
DWIDTH 13 0
BBX 13 13 0 0
BITMAP
66677000877730
18888103778800
07777708877400
01889837888000
00877798775000
00278778880000
00087877750000
00028888800000
0000A777600000
01889777887000
01889777887000
00008777500000
00008777500000
ENDCHAR
STARTCHAR brokenbar
ENCODING 166
SWIDTH 263 0
DWIDTH 4 0
BBX 4 15 0 -2
BITMAP
4667
4778
4778
4778
4778
4778
1222
0000
2334
4778
4778
4778
4778
4778
3555
ENDCHAR
STARTCHAR section
ENCODING 167
SWIDTH 108 0
DWIDTH 2 0
BBX 1 1 0 0
BITMAP
00
ENDCHAR
STARTCHAR dieresis
ENCODING 168
SWIDTH 556 0
DWIDTH 9 0
BBX 9 3 0 11
BITMAP
3444054420
5777087740
1111021110
ENDCHAR
STARTCHAR copyright
ENCODING 169
SWIDTH 869 0
DWIDTH 14 0
BBX 14 14 0 0
BITMAP
00001577400000
0007C8558C6000
00A80144119900
07807D98C80A60
1D16B1000821D0
590D10000000A4
763B0000000076
763B0000000076
490D10000000A3
1D16B1001922D0
06906DAAD70A50
0099103301A800
0006C9669C5000
00000466300000
ENDCHAR
STARTCHAR ordfeminine
ENCODING 170
SWIDTH 833 0
DWIDTH 13 0
BBX 13 13 0 -1
BITMAP
00003787400000
002A7777694000
02A79776888500
0977A777A69910
279969687A7660
67789000766890
76768000377880
56789000378880
18985978678880
08688878678880
00969777678880
00079777678880
00000343000000
ENDCHAR
STARTCHAR guillemotleft
ENCODING 171
SWIDTH 911 0
DWIDTH 15 0
BBX 14 8 0 2
BITMAP
00000570000048
00289660017966
39769852986986
28967941796795
26976611698572
4C488663C57967
01697770059768
00003870000288
ENDCHAR
STARTCHAR logicalnot
ENCODING 172
SWIDTH 718 0
DWIDTH 12 0
BBX 11 6 0 3
BITMAP
277777774440
277777778880
277777778880
266666668880
000000008880
000000005550
ENDCHAR
STARTCHAR registered
ENCODING 174
SWIDTH 869 0
DWIDTH 14 0
BBX 14 14 0 0
BITMAP
00001577400000
0007C8558C6000
00A80000019900
07805888600A60
1D1098448A01D0
590095000E00A4
760097337B0076
76009BADA10076
49009504B000A3
1D109500C302D0
06906300460A50
0099100001A800
0006C9669C5000
00000466300000
ENDCHAR
STARTCHAR degree
ENCODING 176
SWIDTH 330 0
DWIDTH 5 0
BBX 5 5 0 12
BITMAP
036500
387760
680870
387760
047600
ENDCHAR
STARTCHAR plusminus
ENCODING 177
SWIDTH 598 0
DWIDTH 10 0
BBX 9 11 0 0
BITMAP
0001111000
0017888000
0017888000
489788A880
489788A880
489788A880
0017888000
0017888000
0345555420
0677777740
0677777740
ENDCHAR
STARTCHAR uni00B2
ENCODING 178
SWIDTH 435 0
DWIDTH 7 0
BBX 7 11 0 2
BITMAP
28989700
08898660
00005770
00009910
00087500
00579000
02891000
09830000
59A88800
37777700
13333300
ENDCHAR
STARTCHAR uni00B3
ENCODING 179
SWIDTH 515 0
DWIDTH 8 0
BBX 8 11 0 2
BITMAP
59899600
29888680
18886A82
01008774
00789962
00788691
00676868
00113789
07888669
19889792
39989920
ENDCHAR
STARTCHAR acute
ENCODING 180
SWIDTH 472 0
DWIDTH 8 0
BBX 7 5 0 11
BITMAP
00000100
00018830
02886960
28695000
03500000
ENDCHAR
STARTCHAR uni00B5
ENCODING 181
SWIDTH 802 0
DWIDTH 13 0
BBX 13 14 0 -2
BITMAP
12222000222210
47788000888730
47788000888730
47788000888730
47788000888730
47788000888730
47788000888730
47788000998720
47788769689900
47788677886800
4778876696A100
47788776791000
47788887300000
35566000000000
ENDCHAR
STARTCHAR paragraph
ENCODING 182
SWIDTH 676 0
DWIDTH 11 0
BBX 11 14 0 -2
BITMAP
000034444400
005967777A10
06698777B710
2896988B8710
667898988710
6677B6988710
479877988710
0A6977988710
029767988710
000478A88710
000000888710
000000888710
000000888710
000000886910
ENDCHAR
STARTCHAR periodcentered
ENCODING 183
SWIDTH 260 0
DWIDTH 4 0
BBX 4 3 0 6
BITMAP
3884
3884
3884
ENDCHAR
STARTCHAR cedilla
ENCODING 184
SWIDTH 321 0
DWIDTH 5 0
BBX 5 6 0 -6
BITMAP
001110
03A650
196A50
468000
369830
089830
ENDCHAR
STARTCHAR uni00B9
ENCODING 185
SWIDTH 359 0
DWIDTH 6 0
BBX 6 9 0 4
BITMAP
488880
48BBA1
008881
008881
008881
008881
008881
008881
008881
ENDCHAR
STARTCHAR ordmasculine
ENCODING 186
SWIDTH 835 0
DWIDTH 13 0
BBX 13 13 0 -1
BITMAP
00005988720000
00396888687000
02987687696700
0976A67696A820
279A6835986680
66679000468990
77678000179880
56689000667890
18A859687A7670
08689877A69910
0196A666888400
00187676694000
00002687400000
ENDCHAR
STARTCHAR guillemotright
ENCODING 187
SWIDTH 912 0
DWIDTH 15 0
BBX 14 8 0 2
BITMAP
37200002820000
36895002679500
26976971698698
18968951796796
04759750385986
367958B277957C
38688302868940
39610001961000
ENDCHAR
STARTCHAR onequarter
ENCODING 188
SWIDTH 1236 0
DWIDTH 20 0
BBX 20 15 0 -2
BITMAP
58888000178800000000
58BBA000567800000000
00888000876500322400
00888000998100A86500
00888001799005689000
0088800567800A857000
00888008765047991340
00888009981097582780
008880279900AA9889A3
00000056680077777773
00000087650077777773
00000099810044445782
00000279900000002680
00000566800000000000
00000433300000000000
ENDCHAR
STARTCHAR onehalf
ENCODING 189
SWIDTH 1154 0
DWIDTH 18 0
BBX 18 15 0 -2
BITMAP
588880001788000000
58BBA0005678000000
008880008765002100
008880009981687795
00888001799049887A
008880056780000099
008880087650000776
008880099810004790
008880279900019910
000000566800098400
000000876500767000
000000998100888885
000002799000888885
000005668000000000
000004333000000000
ENDCHAR
STARTCHAR threequarters
ENCODING 190
SWIDTH 1345 0
DWIDTH 22 0
BBX 22 15 0 -2
BITMAP
5989960000088710000000
3988868000278900000000
18886A8200666800432300
0100977400976402898200
0078996200998108669000
0078869102789019973000
0077686806668076793320
0011478909764199746740
078886680998139AA89991
1988979227890277777771
3998992066680277777771
0000000097640144447761
0000000099810000006640
0000000278900000000000
0000000333400000000000
ENDCHAR
STARTCHAR questiondown
ENCODING 191
SWIDTH 693 0
DWIDTH 11 0
BBX 11 14 0 0
BITMAP
001577510000
188676698000
4697677A6900
026877879640
000777976780
001112866780
047797697660
047797667910
047798769300
047798861000
024450000000
058870000000
058870000000
058870000000
ENDCHAR
STARTCHAR Agrave
ENCODING 192
SWIDTH 936 0
DWIDTH 15 0
BBX 15 19 0 0
BITMAP
0001000000000000
0026930000000000
0039779400000000
0000298760000000
0000002600000000
0000000000000000
00000B5688000000
0000378997300000
0000859766800000
0001895689800000
0006678997650000
0009866866890000
0037998389972000
0087679097668000
0099867576899000
0567995759976500
0986687778668900
2799857775799720
8667900000976680
ENDCHAR
STARTCHAR Aacute
ENCODING 193
SWIDTH 936 0
DWIDTH 15 0
BBX 15 19 0 0
BITMAP
0000000000010000
0000000004962000
0000000497793000
0000006689200000
0000000620000000
0000000000000000
00000B5688000000
0000378997300000
0000859766800000
0001895689800000
0006678997650000
0009866866890000
0037998389972000
0087679097668000
0099867576899000
0567995759976500
0986687778668900
2799857775799720
8667900000976680
ENDCHAR
STARTCHAR Acircumflex
ENCODING 194
SWIDTH 936 0
DWIDTH 15 0
BBX 15 18 0 0
BITMAP
0000008670000000
0000009990000000
0000056965000000
0000087378000000
0000000000000000
00000B5688000000
0000378997300000
0000859766800000
0001895689800000
0006678997650000
0009866866890000
0037998389972000
0087679097668000
0099867576899000
0567995759976500
0986687778668900
2799857775799720
8667900000976680
ENDCHAR
STARTCHAR Atilde
ENCODING 195
SWIDTH 936 0
DWIDTH 15 0
BBX 15 17 0 0
BITMAP
0004988884653000
0019698888881000
0046848888960000
0000000000000000
00000B5688000000
0000378997300000
0000859766800000
0001895689800000
0006678997650000
0009866866890000
0037998389972000
0087679097668000
0099867576899000
0567995759976500
0986687778668900
2799857775799720
8667900000976680
ENDCHAR
STARTCHAR Adieresis
ENCODING 196
SWIDTH 936 0
DWIDTH 15 0
BBX 15 16 0 0
BITMAP
0003444044420000
0005778087740000
0001111011110000
00000B5688000000
0000378997300000
0000859766800000
0001895689800000
0006678997650000
0009866866890000
0037998389972000
0087679097668000
0099867576899000
0567995759976500
0986687778668900
2799857775799720
8667900000976680
ENDCHAR
STARTCHAR Aring
ENCODING 197
SWIDTH 936 0
DWIDTH 15 0
BBX 15 18 0 0
BITMAP
0000004640000000
0000048784000000
0000078087000000
0000057775000000
0000005750000000
00000B5688000000
0000378997300000
0000859766800000
0001895689800000
0006678997650000
0009866866890000
0037998389972000
0087679097668000
0099867576899000
0567995759976500
0986687778668900
2799857775799720
8667900000976680
ENDCHAR
STARTCHAR AE
ENCODING 198
SWIDTH 1198 0
DWIDTH 19 0
BBX 19 13 0 0
BITMAP
00000B668B8888888850
0000378987A888888850
0000859766B888888850
00018957898100000000
00066789976600000000
00098669668C88888500
00278983899798888500
008667909767B8888500
00998675768980000000
05679957599774000000
0986687778668C888850
27998577758998988850
86679000009867B88850
ENDCHAR
STARTCHAR Ccedilla
ENCODING 199
SWIDTH 852 0
DWIDTH 14 0
BBX 14 20 0 -6
BITMAP
00000367620000
00049767779300
00678867687850
04795977795971
09858797979510
36897400043000
76679000000000
86676000000000
76678000000000
46898300043000
09868886888510
04796977796971
00778867688760
00049667779400
00000489730000
000004A6500000
0000286A500000
00004670000000
00003698300000
00000898300000
ENDCHAR
STARTCHAR Egrave
ENCODING 200
SWIDTH 706 0
DWIDTH 11 0
BBX 11 18 0 0
BITMAP
159500000000
288695000000
001886700000
000016000000
000000000000
4668B8888860
4778B8888860
4778B8888860
477880000000
477880000000
4778B8860000
4778B8860000
4778B8860000
477880000000
477880000000
4778B8888860
4778B8888860
4778B8888860
ENDCHAR
STARTCHAR Eacute
ENCODING 201
SWIDTH 706 0
DWIDTH 11 0
BBX 11 19 0 0
BITMAP
000000000100
000000028730
000003977940
000047794000
000005300000
000000000000
4668B8888860
4778B8888860
4778B8888860
477880000000
477880000000
4778B8860000
4778B8860000
4778B8860000
477880000000
477880000000
4778B8888860
4778B8888860
4778B8888860
ENDCHAR
STARTCHAR Ecircumflex
ENCODING 202
SWIDTH 706 0
DWIDTH 11 0
BBX 11 18 0 0
BITMAP
000057800000
000099720000
000278680000
000764880000
000000000000
4668B8888860
4778B8888860
4778B8888860
477880000000
477880000000
4778B8860000
4778B8860000
4778B8860000
477880000000
477880000000
4778B8888860
4778B8888860
4778B8888860
ENDCHAR
STARTCHAR Edieresis
ENCODING 203
SWIDTH 706 0
DWIDTH 11 0
BBX 11 16 0 0
BITMAP
014550344400
027880577800
001220111100
4668B8888860
4778B8888860
4778B8888860
477880000000
477880000000
4778B8860000
4778B8860000
4778B8860000
477880000000
477880000000
4778B8888860
4778B8888860
4778B8888860
ENDCHAR
STARTCHAR Igrave
ENCODING 204
SWIDTH 338 0
DWIDTH 5 0
BBX 8 18 -3 0
BITMAP
15950000
28869500
00188670
00001600
00000000
00046688
00047788
00047788
00047788
00047788
00047788
00047788
00047788
00047788
00047788
00047788
00047788
00047788
ENDCHAR
STARTCHAR Iacute
ENCODING 205
SWIDTH 338 0
DWIDTH 5 0
BBX 8 19 0 0
BITMAP
00000010
00002873
00397794
04779400
00530000
00000000
46688000
47788000
47788000
47788000
47788000
47788000
47788000
47788000
47788000
47788000
47788000
47788000
47788000
ENDCHAR
STARTCHAR Icircumflex
ENCODING 206
SWIDTH 338 0
DWIDTH 5 0
BBX 5 18 0 0
BITMAP
057800
099720
278680
764880
000000
466880
477880
477880
477880
477880
477880
477880
477880
477880
477880
477880
477880
477880
ENDCHAR
STARTCHAR Idieresis
ENCODING 207
SWIDTH 338 0
DWIDTH 5 0
BBX 9 16 -2 0
BITMAP
1455034440
2788057780
0122011110
0046688000
0047788000
0047788000
0047788000
0047788000
0047788000
0047788000
0047788000
0047788000
0047788000
0047788000
0047788000
0047788000
ENDCHAR
STARTCHAR Eth
ENCODING 208
SWIDTH 905 0
DWIDTH 15 0
BBX 14 13 0 0
BITMAP
0B888888895000
08988888886910
08878888869580
08885888768974
07777000197679
58888830046898
58888830027999
58888830046899
07777000197679
08886888858964
08888888878590
08A88888886910
0C888888896000
ENDCHAR
STARTCHAR Ntilde
ENCODING 209
SWIDTH 877 0
DWIDTH 14 0
BBX 14 17 0 0
BITMAP
00189888807700
00749888894800
00881888889200
00000000000000
4A866800087664
4A689740088774
45975890088774
47889867088774
47696798288774
47789867988774
47787699678774
47788976898774
47788289769674
477880768A8774
47788009867A54
477880047986A4
477880008669A4
ENDCHAR
STARTCHAR Ograve
ENCODING 210
SWIDTH 933 0
DWIDTH 15 0
BBX 15 20 0 -1
BITMAP
0001000000000000
0026930000000000
0039779400000000
0000397760000000
0000002600000000
0000036762000000
0004976667930000
0067886668775000
0479597779597300
0985879796957900
3689740004698720
7667900000976660
8667600000776670
7667800000976660
4689830004798730
0986888697858900
0479697779597400
0077886668876000
0004966666940000
0000047873000000
ENDCHAR
STARTCHAR Oacute
ENCODING 211
SWIDTH 933 0
DWIDTH 15 0
BBX 15 20 0 -1
BITMAP
0000000000010000
0000000004962000
0000000497892000
0000006689200000
0000000620000000
0000036762000000
0004976667930000
0067886668775000
0479597779597300
0985879796957900
3689740004698720
7667900000976660
8667600000776670
7667800000976660
4689830004798730
0986888697858900
0479697779597400
0077886668876000
0004966666940000
0000047873000000
ENDCHAR
STARTCHAR Ocircumflex
ENCODING 212
SWIDTH 933 0
DWIDTH 15 0
BBX 15 19 0 -1
BITMAP
0000008570000000
0000018990000000
0000066965000000
0000087378000000
0000036762000000
0004976667930000
0067886668775000
0479597779597300
0985879796957900
3689740004698720
7667900000976660
8667600000776670
7667800000976660
4689830004798730
0986888697858900
0479697779597400
0077886668876000
0004966666940000
0000047873000000
ENDCHAR
STARTCHAR Otilde
ENCODING 213
SWIDTH 933 0
DWIDTH 15 0
BBX 15 18 0 -1
BITMAP
0004988884653000
0018698888881000
0046748888960000
0000036762000000
0004976667930000
0067886668775000
0479597779597300
0985879796957900
3689740004698720
7667900000976660
8667600000776670
7667800000976660
4689830004798730
0986888697858900
0479697779597400
0077886668876000
0004966666940000
0000047873000000
ENDCHAR
STARTCHAR Odieresis
ENCODING 214
SWIDTH 933 0
DWIDTH 15 0
BBX 15 17 0 -1
BITMAP
0003444044420000
0005777087740000
0001147774110000
0004976667930000
0067886668775000
0479597779597300
0985879796957900
3689740004698720
7667900000976660
8667600000776670
7667800000976660
4689830004798730
0986888697858900
0479697779597400
0077886668876000
0004966666940000
0000047873000000
ENDCHAR
STARTCHAR multiply
ENCODING 215
SWIDTH 790 0
DWIDTH 13 0
BBX 13 12 0 0
BITMAP
21232102123210
37A76919857A00
0857A6957A7300
01A8587A758000
00477A85891000
0008858A650000
00038A76A00000
000A7699570000
00759967982000
028966A866A000
09669875896600
6698570A759910
ENDCHAR
STARTCHAR Oslash
ENCODING 216
SWIDTH 938 0
DWIDTH 15 0
BBX 15 19 0 -3
BITMAP
0000000000100000
0000000001951000
0000036765579000
0004976667973000
0067886668785000
0479597779598300
0985879796957900
4689740004798720
7667900000976660
8667600000776670
7667800000976660
4689830004798730
0985888697958900
0569597779597400
0076886668876000
0036966667940000
0097567873000000
0048900000000000
0000400000000000
ENDCHAR
STARTCHAR Ugrave
ENCODING 217
SWIDTH 905 0
DWIDTH 14 0
BBX 14 20 0 -1
BITMAP
00010000000000
00388200000000
00596882000000
00004968300000
00000044000000
00000000000000
56678000026788
57778000027888
57778000027888
57778000027888
57778000027888
57778000027888
57778000027888
57788000036898
37898200086678
09956976959865
066A6866787790
00869777696920
00069677679100
00000578620000
ENDCHAR
STARTCHAR Uacute
ENCODING 218
SWIDTH 905 0
DWIDTH 14 0
BBX 14 19 0 -1
BITMAP
00000000069410
00000006969810
00000086971000
00000016100000
00000000000000
56678000026788
57778000027888
57778000027888
57778000027888
57778000027888
57778000027888
57778000027888
57788000036898
37898200086678
09956976959865
066A6866787790
00869777696920
00069677679100
00000578620000
ENDCHAR
STARTCHAR Ucircumflex
ENCODING 219
SWIDTH 905 0
DWIDTH 14 0
BBX 14 19 0 -1
BITMAP
000000B5400000
00000387900000
00000849810000
00001895660000
00000000000000
56678000026788
57778000027888
57778000027888
57778000027888
57778000027888
57778000027888
57778000027888
57788000036898
37898200086678
09956976959865
066A6866787790
00869777696920
00069677679100
00000578620000
ENDCHAR
STARTCHAR Udieresis
ENCODING 220
SWIDTH 905 0
DWIDTH 14 0
BBX 14 17 0 -1
BITMAP
00054420555000
00087730888000
00021110222000
56678000026788
57778000027888
57778000027888
57778000027888
57778000027888
57778000027888
57778000027888
57788000036898
37898200086678
09956976959865
066A6866787790
00869777696920
00069677679100
00000578620000
ENDCHAR
STARTCHAR Yacute
ENCODING 221
SWIDTH 789 0
DWIDTH 13 0
BBX 13 18 0 0
BITMAP
00000000595100
00000059688200
00000768810000
00000061000000
00000000000000
76666000887720
18898004778800
08777608877300
02789847788000
00877698774000
00278778880000
00087887740000
00038788800000
0000B777600000
00008877400000
00008877400000
00008877400000
00008877400000
ENDCHAR
STARTCHAR Thorn
ENCODING 222
SWIDTH 798 0
DWIDTH 13 0
BBX 13 16 0 -2
BITMAP
23344000000000
47789110000000
4778B889940000
4778B889877000
4778B989596500
4778B987858900
47788003899720
47788000887730
47788003899720
47789887858900
477899885A6500
47789889877000
47789889940000
47788110000000
47788000000000
01111000000000
ENDCHAR
STARTCHAR germandbls
ENCODING 223
SWIDTH 826 0
DWIDTH 13 0
BBX 13 16 0 -2
BITMAP
00026787620000
00786777678000
076A77776A5800
18A6877787A720
46799777A87750
57779555A77650
57779777779810
57779777788820
57779666967880
57778000576880
57779888896680
57779888869920
57779888978600
57779888994000
57778000000000
11111000000000
ENDCHAR
STARTCHAR agrave
ENCODING 224
SWIDTH 832 0
DWIDTH 13 0
BBX 13 18 0 -1
BITMAP
00100000000000
02693000000000
03977940000000
00039775000000
00000260000000
00004787400000
003A77776A3000
03978776889400
0A76A777A68A00
478A69686A7650
77779000866780
86766000477880
76679000477880
27885878777880
08688878777880
01969777777880
00079777677880
00000343000000
ENDCHAR
STARTCHAR aacute
ENCODING 225
SWIDTH 832 0
DWIDTH 13 0
BBX 13 18 0 -1
BITMAP
00000000001000
00000000496200
00000049789200
00000668820000
00000062000000
00004787400000
003A77776A3000
03978776889400
0A76A777A68A00
478A69686A7650
77779000866780
86766000477880
76679000477880
27885878777880
08688878777880
01969777777880
00079777677880
00000343000000
ENDCHAR
STARTCHAR acircumflex
ENCODING 226
SWIDTH 832 0
DWIDTH 13 0
BBX 13 18 0 -1
BITMAP
00000857000000
00001899000000
00006696500000
00008737800000
00000000000000
00004787400000
003A77776A3000
03978776889400
0A76A777A68A00
478A69686A7650
77779000866780
86766000477880
76679000477880
27885878777880
08688878777880
01969777777880
00079777677880
00000343000000
ENDCHAR
STARTCHAR atilde
ENCODING 227
SWIDTH 832 0
DWIDTH 13 0
BBX 13 17 0 -1
BITMAP
00598888465200
01879888888100
04674888896000
00000000000000
00004787400000
003A77776A3000
03978776889400
0A76A777A68A00
478A69686A7650
77779000866780
86766000477880
76679000477880
27885878777880
08688878777880
01969777777880
00079777677880
00000343000000
ENDCHAR
STARTCHAR adieresis
ENCODING 228
SWIDTH 832 0
DWIDTH 13 0
BBX 13 16 0 -1
BITMAP
00344405442000
00577708774000
00111102111000
00004787400000
003A77776A3000
03978776889400
0A76A777A68A00
478A69686A7650
77779000866780
86766000477880
76679000477880
27885878777880
08688878777880
01969777777880
00079777677880
00000343000000
ENDCHAR
STARTCHAR aring
ENCODING 229
SWIDTH 832 0
DWIDTH 13 0
BBX 13 18 0 -1
BITMAP
00000464000000
00004877500000
00007808700000
00004877500000
00000475000000
00004787400000
003A77776A3000
03978776889400
0A76A777A68A00
478A69686A7650
77779000866780
86766000477880
76679000477880
27885878777880
08688878777880
01969777777880
00079777677880
00000343000000
ENDCHAR
STARTCHAR ae
ENCODING 230
SWIDTH 1166 0
DWIDTH 19 0
BBX 18 13 0 -1
BITMAP
000047874012344444
003A77776938B77777
039787768895B77777
0A76A777A68AC88888
478A69686A76A11110
777790008667C88886
867660004778C88886
766790004778B88886
278858787778800000
086888787778B88888
019697777778B88888
000797776778B88888
000003430000000000
ENDCHAR
STARTCHAR ccedilla
ENCODING 231
SWIDTH 736 0
DWIDTH 12 0
BBX 12 18 0 -6
BITMAP
000169887200
003968886860
038876876963
0986A6769630
468A67356100
766790000000
876760000000
766790001000
279959696400
09689777A640
0196A6668783
001976767930
000027983000
000039670000
000095970000
000279000000
000188840000
000079840000
ENDCHAR
STARTCHAR egrave
ENCODING 232
SWIDTH 666 0
DWIDTH 11 0
BBX 10 17 0 0
BITMAP
0100000000
2793000000
3977930000
0039775000
0000350000
1222344444
4778B77777
4778B77777
4778B88888
4778911110
4778B88886
4778B88886
4778B88886
4778800000
4778B88888
4778B88888
4778B88888
ENDCHAR
STARTCHAR eacute
ENCODING 233
SWIDTH 666 0
DWIDTH 11 0
BBX 11 17 0 0
BITMAP
000000000100
000000049520
000005968820
000076882000
000006100000
122234444400
4778B7777700
4778B7777700
4778B8888800
477891111000
4778B8888600
4778B8888600
4778B8888600
477880000000
4778B8888800
4778B8888800
4778B8888800
ENDCHAR
STARTCHAR ecircumflex
ENCODING 234
SWIDTH 666 0
DWIDTH 11 0
BBX 10 17 0 0
BITMAP
0000956000
0001899000
0007597400
0008836800
0000000000
1222344444
4778B77777
4778B77777
4778B88888
4778911110
4778B88886
4778B88886
4778B88886
4778800000
4778B88888
4778B88888
4778B88888
ENDCHAR
STARTCHAR edieresis
ENCODING 235
SWIDTH 666 0
DWIDTH 11 0
BBX 10 15 0 0
BITMAP
0444305442
0677608873
0111102111
1222344444
4778B77777
4778B77777
4778B88888
4778911110
4778B88886
4778B88886
4778B88886
4778800000
4778B88888
4778B88888
4778B88888
ENDCHAR
STARTCHAR igrave
ENCODING 236
SWIDTH 337 0
DWIDTH 5 0
BBX 8 16 -3 0
BITMAP
15950000
28869500
00188670
00001600
00012222
00047788
00047788
00047788
00047788
00047788
00047788
00047788
00047788
00047788
00047788
00047788
ENDCHAR
STARTCHAR iacute
ENCODING 237
SWIDTH 337 0
DWIDTH 5 0
BBX 8 17 0 0
BITMAP
00000010
00002873
00397794
04779400
00530000
12222000
47788000
47788000
47788000
47788000
47788000
47788000
47788000
47788000
47788000
47788000
47788000
ENDCHAR
STARTCHAR icircumflex
ENCODING 238
SWIDTH 337 0
DWIDTH 5 0
BBX 5 17 0 0
BITMAP
057800
099720
278680
764880
000000
122220
477880
477880
477880
477880
477880
477880
477880
477880
477880
477880
477880
ENDCHAR
STARTCHAR idieresis
ENCODING 239
SWIDTH 337 0
DWIDTH 5 0
BBX 9 15 -2 0
BITMAP
1455034440
2788057780
0122011110
0012222000
0047788000
0047788000
0047788000
0047788000
0047788000
0047788000
0047788000
0047788000
0047788000
0047788000
0047788000
ENDCHAR
STARTCHAR eth
ENCODING 240
SWIDTH 783 0
DWIDTH 13 0
BBX 12 15 0 -1
BITMAP
000157751000
019867768700
046966779590
002787797965
000077797689
000011027988
005977758888
086888858888
479688858888
876788857988
876796696689
569887787866
0969667796A0
018866768810
000268861000
ENDCHAR
STARTCHAR ntilde
ENCODING 241
SWIDTH 787 0
DWIDTH 13 0
BBX 12 16 0 0
BITMAP
006988882760
037888889690
076568888940
000000000000
122212000222
4C857A000888
487996600888
46A669910888
478897680888
476967A82888
477899669788
477856897588
477809758A78
477803798678
477800866999
47780018976C
ENDCHAR
STARTCHAR ograve
ENCODING 242
SWIDTH 833 0
DWIDTH 13 0
BBX 13 18 0 -1
BITMAP
00100000000000
02594000000000
02886950000000
00028867000000
00000260000000
00016988710000
00396888686000
03887687696600
0986A67696A810
468A6735897670
76679000567890
87676000378880
76679000766890
279959696A8660
09689777A68900
0196A666988300
00197676693000
00002787400000
ENDCHAR
STARTCHAR oacute
ENCODING 243
SWIDTH 833 0
DWIDTH 13 0
BBX 13 18 0 -1
BITMAP
00000000001000
00000000397200
00000039779300
00000577930000
00000053000000
00016988710000
00396888686000
03887687696600
0986A67696A810
468A6735897670
76679000567890
87676000378880
76679000766890
279959696A8660
09689777A68900
0196A666988300
00197676693000
00002787400000
ENDCHAR
STARTCHAR ocircumflex
ENCODING 244
SWIDTH 833 0
DWIDTH 13 0
BBX 13 18 0 -1
BITMAP
00000678000000
00000998100000
00003686700000
00008638900000
00000000000000
00016988710000
00396888686000
03887687696600
0986A67696A810
468A6735897670
76679000567890
87676000378880
76679000766890
279959696A8660
09689777A68900
0196A666988300
00197676693000
00002787400000
ENDCHAR
STARTCHAR otilde
ENCODING 245
SWIDTH 833 0
DWIDTH 13 0
BBX 13 17 0 -1
BITMAP
00398888545400
00959888896300
02793888897000
00000000000000
00016988710000
00396888686000
03887687696600
0986A67696A810
468A6735897670
76679000567890
87676000378880
76679000766890
279959696A8660
09689777A68900
0196A666988300
00197676693000
00002787400000
ENDCHAR
STARTCHAR odieresis
ENCODING 246
SWIDTH 833 0
DWIDTH 13 0
BBX 13 16 0 -1
BITMAP
00244503444000
00378806776000
00111201111000
00016988710000
00396888686000
03887687696600
0986A67696A810
468A6735897670
76679000567890
87676000378880
76679000766890
279959696A8660
09689777A68900
0196A666988300
00197676693000
00002787400000
ENDCHAR
STARTCHAR divide
ENCODING 247
SWIDTH 260 0
DWIDTH 4 0
BBX 6 10 -1 0
BITMAP
046670
047780
046670
133332
244443
377774
024440
047780
047780
012220
ENDCHAR
STARTCHAR oslash
ENCODING 248
SWIDTH 832 0
DWIDTH 13 0
BBX 13 15 0 -2
BITMAP
00000000273000
00016989966600
00496888689100
03887787696600
0986A676969810
468A6735896670
76778000667890
87776000378880
76679000767890
379959696A7660
09689777A68900
01969677978300
01797676693000
02577787400000
00032000000000
ENDCHAR
STARTCHAR ugrave
ENCODING 249
SWIDTH 795 0
DWIDTH 13 0
BBX 13 18 0 -1
BITMAP
00100000000000
02793000000000
04977930000000
00039774000000
00000350000000
12222000222200
57778000888810
57778000888810
57778000888810
57778000888810
57778000888810
57778000888810
57789001898900
27996969678900
09769778796600
02978666959000
00297776780000
00004786200000
ENDCHAR
STARTCHAR uacute
ENCODING 250
SWIDTH 795 0
DWIDTH 13 0
BBX 13 18 0 -1
BITMAP
00000000001000
00000000595100
00000059688200
00000768820000
00000061000000
12222000222200
57778000888810
57778000888810
57778000888810
57778000888810
57778000888810
57778000888810
57789001898900
27996969678900
09769778796600
02978666959000
00297776780000
00004786200000
ENDCHAR
STARTCHAR ucircumflex
ENCODING 251
SWIDTH 795 0
DWIDTH 13 0
BBX 13 18 0 -1
BITMAP
00000A56000000
00002889000000
00007597300000
00008846800000
00000000000000
12222000222200
57778000888810
57778000888810
57778000888810
57778000888810
57778000888810
57778000888810
57789001898900
27996969678900
09769778796600
02978666959000
00297776780000
00004786200000
ENDCHAR
STARTCHAR udieresis
ENCODING 252
SWIDTH 795 0
DWIDTH 13 0
BBX 13 16 0 -1
BITMAP
00444305441000
00777508872000
00111102110000
12222000222200
57778000888810
57778000888810
57778000888810
57778000888810
57778000888810
57778000888810
57789001898900
27996969678900
09769778796600
02978666959000
00297776780000
00004786200000
ENDCHAR
STARTCHAR yacute
ENCODING 253
SWIDTH 733 0
DWIDTH 12 0
BBX 12 17 0 0
BITMAP
000000000100
000000018830
000002886960
000028695000
000003500000
222210022222
667780088872
088873477880
056788887730
008876778800
005679877400
000867888000
0005B8774000
000098880000
000088880000
000088880000
000088880000
ENDCHAR
STARTCHAR thorn
ENCODING 254
SWIDTH 833 0
DWIDTH 13 0
BBX 13 15 0 -2
BITMAP
46688000000000
47788000000000
47788000000000
47788888861000
4778867766A500
47788677777930
47788677796680
47788666867890
47788888966990
47788888888660
47788777895900
47788677688100
47788333310000
47788000000000
35566000000000
ENDCHAR
STARTCHAR ydieresis
ENCODING 255
SWIDTH 733 0
DWIDTH 12 0
BBX 12 15 0 0
BITMAP
005550145500
008880278800
002220012200
222210022222
667780088872
088873477880
056788887730
008876778800
005679877400
000867888000
0005B8774000
000098880000
000088880000
000088880000
000088880000
ENDCHAR
STARTCHAR Amacron
ENCODING 256
SWIDTH 936 0
DWIDTH 15 0
BBX 15 13 0 0
BITMAP
00000B5688000000
0000378997300000
0000859766800000
0001895689800000
0006678997650000
0009866866890000
0037998389972000
0087679097668000
0099867576899000
0567995759976500
0986687778668900
2799857775799720
8667900000976680
ENDCHAR
STARTCHAR amacron
ENCODING 257
SWIDTH 832 0
DWIDTH 13 0
BBX 13 13 0 -1
BITMAP
00004787400000
003A77776A3000
03978776889400
0A76A777A68A00
478A69686A7650
77779000866780
86766000477880
76679000477880
27885878777880
08688878777880
01969777777880
00079777677880
00000343000000
ENDCHAR
STARTCHAR Abreve
ENCODING 258
SWIDTH 936 0
DWIDTH 15 0
BBX 15 17 0 0
BITMAP
0000034043000000
0000068786000000
0000004640000000
0000000000000000
00000B5688000000
0000378997300000
0000859766800000
0001895689800000
0006678997650000
0009866866890000
0037998389972000
0087679097668000
0099867576899000
0567995759976500
0986687778668900
2799857775799720
8667900000976680
ENDCHAR
STARTCHAR abreve
ENCODING 259
SWIDTH 832 0
DWIDTH 13 0
BBX 13 16 0 -1
BITMAP
00003404300000
00006878600000
00000463000000
00004787400000
003A77776A3000
03978776889400
0A76A777A68A00
478A69686A7650
77779000866780
86766000477880
76679000477880
27885878777880
08688878777880
01969777777880
00079777677880
00000343000000
ENDCHAR
STARTCHAR Aogonek
ENCODING 260
SWIDTH 937 0
DWIDTH 15 0
BBX 15 18 0 -5
BITMAP
00000A6788000000
0000189986400000
0000769667900000
0000993799810000
0004688986670000
0009766867990000
0018997389864000
0076689086679000
0099768567998100
0478985769866700
0976796777678900
1898757775898640
6678917400876790
00001A5300000000
0000469100000000
0000476600000000
0000477800000000
0000233400000000
ENDCHAR
STARTCHAR aogonek
ENCODING 261
SWIDTH 832 0
DWIDTH 13 0
BBX 13 18 0 -6
BITMAP
00004787400000
003A77776A3000
03978776889400
0A76A777A68A00
478A69686A7650
77779000866780
86766000477880
76679000477880
27885878777880
08688878777880
01969777777880
00079777677880
00002A93000000
0001A530000000
00046910000000
00047660000000
00047780000000
00023340000000
ENDCHAR
STARTCHAR Cacute
ENCODING 262
SWIDTH 852 0
DWIDTH 14 0
BBX 14 20 0 -1
BITMAP
00000000000100
00000000049620
00000004978920
00000066892000
00000006200000
00000367620000
00049767779300
00678867687850
04795977795971
09858797979510
36897400043000
76679000000000
86676000000000
76678000000000
46898300043000
09868886888510
04796977796971
00778867688760
00049667779400
00000478730000
ENDCHAR
STARTCHAR cacute
ENCODING 263
SWIDTH 736 0
DWIDTH 12 0
BBX 12 18 0 -1
BITMAP
000000000010
000000003972
000000397793
000005779300
000000530000
000169887200
003968886860
038876876963
0986A6769630
468A67356100
766790000000
876760000000
766790001000
279959696400
09689777A640
0196A6668783
001976767930
000027873000
ENDCHAR
STARTCHAR Cdotaccent
ENCODING 266
SWIDTH 852 0
DWIDTH 14 0
BBX 14 18 0 -1
BITMAP
00000088700000
00000088700000
00000088700000
00000367620000
00049767779300
00678867687850
04795977795971
09858797979510
36897400043000
76679000000000
86676000000000
76678000000000
46898300043000
09868886888510
04796977796971
00778867688760
00049667779400
00000478730000
ENDCHAR
STARTCHAR cdotaccent
ENCODING 267
SWIDTH 736 0
DWIDTH 12 0
BBX 12 16 0 -1
BITMAP
000007880000
000007880000
000007880000
000169887200
003968886860
038876876963
0986A6769630
468A67356100
766790000000
876760000000
766790001000
279959696400
09689777A640
0196A6668783
001976767930
000027873000
ENDCHAR
STARTCHAR Ccaron
ENCODING 268
SWIDTH 852 0
DWIDTH 14 0
BBX 14 19 0 -1
BITMAP
00000872780000
00000669650000
00000189900000
00000096800000
00000367620000
00049767779300
00678867687850
04795977795971
09858797979510
36897400043000
76679000000000
86676000000000
76678000000000
46898300043000
09868886888510
04796977796971
00778867688760
00049667779400
00000478730000
ENDCHAR
STARTCHAR ccaron
ENCODING 269
SWIDTH 736 0
DWIDTH 12 0
BBX 12 18 0 -1
BITMAP
000076278000
000046867000
000009972000
000007790000
000000000000
000169887200
003968886860
038876876963
0986A6769630
468A67356100
766790000000
876760000000
766790001000
279959696400
09689777A640
0196A6668783
001976767930
000027873000
ENDCHAR
STARTCHAR Dcaron
ENCODING 270
SWIDTH 886 0
DWIDTH 14 0
BBX 14 18 0 0
BITMAP
00001785560000
00000959810000
00000477900000
000000C6400000
00000000000000
4A888888893000
46A88888877600
4769888886A650
47788888686990
47788000389765
47788000086668
47788000066679
47788000086668
4778800028A765
47788888776991
477A8888869660
46A88888877800
4A888888894000
ENDCHAR
STARTCHAR dcaron
ENCODING 271
SWIDTH 1084 0
DWIDTH 17 0
BBX 17 12 0 0
BITMAP
144444431000007770
487777778920008880
47A777779784004880
477C88889589108690
4778A8896A76706940
477880008668903100
477880004679900000
477880009767900000
477888886986500000
477A8888776A000000
46B8888896A2000000
4B8888899710000000
ENDCHAR
STARTCHAR Dcroat
ENCODING 272
SWIDTH 888 0
DWIDTH 14 0
BBX 15 13 -1 0
BITMAP
04A8888888930000
046A888888776000
04769888886A7500
0477888886869900
0477880003897650
7177888700866680
7177888700666890
7777898700866690
04778800028A7660
0477888887769910
0477A88888696600
046A888888778000
04A8888888940000
ENDCHAR
STARTCHAR dcroat
ENCODING 273
SWIDTH 833 0
DWIDTH 13 0
BBX 14 12 -1 0
BITMAP
01444444310000
04877777789200
047A7777797840
0477C888896891
04778A8896A766
61778876086689
36778944046799
25778933097679
04778888869865
0477A8888776A0
046A8888896A20
04A88888997100
ENDCHAR
STARTCHAR Emacron
ENCODING 274
SWIDTH 706 0
DWIDTH 11 0
BBX 11 13 0 0
BITMAP
4668B8888860
4778B8888860
4778B8888860
477880000000
477880000000
4778B8860000
4778B8860000
4778B8860000
477880000000
477880000000
4778B8888860
4778B8888860
4778B8888860
ENDCHAR
STARTCHAR emacron
ENCODING 275
SWIDTH 666 0
DWIDTH 11 0
BBX 10 12 0 0
BITMAP
1222344444
4778B77777
4778B77777
4778B88888
4778911110
4778B88886
4778B88886
4778B88886
4778800000
4778B88888
4778B88888
4778B88888
ENDCHAR
STARTCHAR Ebreve
ENCODING 276
SWIDTH 706 0
DWIDTH 11 0
BBX 11 17 0 0
BITMAP
000340340000
000487870000
000036500000
000000000000
4668B8888860
4778B8888860
4778B8888860
477880000000
477880000000
4778B8860000
4778B8860000
4778B8860000
477880000000
477880000000
4778B8888860
4778B8888860
4778B8888860
ENDCHAR
STARTCHAR ebreve
ENCODING 277
SWIDTH 666 0
DWIDTH 11 0
BBX 10 15 0 0
BITMAP
0004304300
0007878500
0000463000
1222344444
4778B77777
4778B77777
4778B88888
4778911110
4778B88886
4778B88886
4778B88886
4778800000
4778B88888
4778B88888
4778B88888
ENDCHAR
STARTCHAR Edotaccent
ENCODING 278
SWIDTH 706 0
DWIDTH 11 0
BBX 11 17 0 0
BITMAP
000068810000
000068810000
000068810000
000000000000
4668B8888860
4778B8888860
4778B8888860
477880000000
477880000000
4778B8860000
4778B8860000
4778B8860000
477880000000
477880000000
4778B8888860
4778B8888860
4778B8888860
ENDCHAR
STARTCHAR edotaccent
ENCODING 279
SWIDTH 666 0
DWIDTH 11 0
BBX 10 15 0 0
BITMAP
0000887000
0000887000
0000887000
1222344444
4778B77777
4778B77777
4778B88888
4778911110
4778B88886
4778B88886
4778B88886
4778800000
4778B88888
4778B88888
4778B88888
ENDCHAR
STARTCHAR Eogonek
ENCODING 280
SWIDTH 706 0
DWIDTH 11 0
BBX 11 18 0 -5
BITMAP
4667B8888850
4778B8888850
4778B8888850
477880000000
477880000000
4778B8860000
4778B8860000
4778B8860000
477880000000
477880000000
4778B8888850
4778B8888850
4778B8889FA0
00000000A540
000000026A20
000000037860
000000037880
000000013440
ENDCHAR
STARTCHAR eogonek
ENCODING 281
SWIDTH 666 0
DWIDTH 11 0
BBX 11 17 0 -5
BITMAP
122234444400
4778B7777700
4778B7777700
4778B8888800
477891111000
4778B8888600
4778B8888600
4778B8888600
477880000000
4778B8888800
4778B8888800
4778B888DF10
000000066600
000000097400
000000088610
000000088810
000000044400
ENDCHAR
STARTCHAR Ecaron
ENCODING 282
SWIDTH 706 0
DWIDTH 11 0
BBX 11 18 0 0
BITMAP
000753870000
000378780000
000099730000
000068900000
000000000000
4668B8888860
4778B8888860
4778B8888860
477880000000
477880000000
4778B8860000
4778B8860000
4778B8860000
477880000000
477880000000
4778B8888860
4778B8888860
4778B8888860
ENDCHAR
STARTCHAR ecaron
ENCODING 283
SWIDTH 666 0
DWIDTH 11 0
BBX 10 17 0 0
BITMAP
0008736700
0007696400
0002899000
0000A67000
0000000000
1222344444
4778B77777
4778B77777
4778B88888
4778911110
4778B88886
4778B88886
4778B88886
4778800000
4778B88888
4778B88888
4778B88888
ENDCHAR
STARTCHAR Gbreve
ENCODING 286
SWIDTH 908 0
DWIDTH 15 0
BBX 14 18 0 -1
BITMAP
00000340430000
00000687860000
00000046300000
00000367620000
00049767779300
00678867687850
04795977795971
09858797979510
36897400043000
76679000000000
87676000016666
77678000018888
47899200018888
09867886798888
05696966798888
00868877788888
00059667778888
00000478741000
ENDCHAR
STARTCHAR gbreve
ENCODING 287
SWIDTH 827 0
DWIDTH 13 0
BBX 13 16 0 -1
BITMAP
00003403400000
00005878700000
00000364000000
00016988720000
00396888686000
03887687696300
0986A676963000
468A6735610000
76679000000000
87676000455560
76679000577780
27995968C77780
09689777B77780
0196A667A77780
00197676977780
00002787400000
ENDCHAR
STARTCHAR Gdotaccent
ENCODING 288
SWIDTH 908 0
DWIDTH 15 0
BBX 14 18 0 -1
BITMAP
00000088700000
00000088700000
00000088700000
00000367620000
00049767779300
00678867687850
04795977795971
09858797979510
36897400043000
76679000000000
87676000016666
77678000018888
47899200018888
09867886798888
05696966798888
00868877788888
00059667778888
00000478741000
ENDCHAR
STARTCHAR gdotaccent
ENCODING 289
SWIDTH 827 0
DWIDTH 13 0
BBX 13 16 0 -1
BITMAP
00000788000000
00000788000000
00000788000000
00016988720000
00396888686000
03887687696300
0986A676963000
468A6735610000
76679000000000
87676000455560
76679000577780
27995968C77780
09689777B77780
0196A667A77780
00197676977780
00002787400000
ENDCHAR
STARTCHAR Gcommaaccent
ENCODING 290
SWIDTH 908 0
DWIDTH 15 0
BBX 14 21 0 -7
BITMAP
00000367620000
00049767779300
00678867687850
04795977795971
09858797979510
36897400043000
76679000000000
87676000016666
77678000018888
47899200018888
09867886798888
05696966798888
00868877788888
00059667778888
00000478741000
00000077700000
00000088800000
00000038800000
00000086900000
00000069400000
00000020000000
ENDCHAR
STARTCHAR gcommaaccent
ENCODING 291
SWIDTH 827 0
DWIDTH 13 0
BBX 13 13 0 -1
BITMAP
00016988720000
00396888686000
03887687696300
0986A676963000
468A6735610000
76679000000000
87676000455560
76679000577780
27995968C77780
09689777B77780
0196A667A77780
00197676977780
00002787400000
ENDCHAR
STARTCHAR Hcircumflex
ENCODING 292
SWIDTH 901 0
DWIDTH 14 0
BBX 14 18 0 0
BITMAP
000000B5400000
00000487900000
00000849810000
00001895660000
00000000000000
46688000046688
47788000047788
47788000047788
47788000047788
47788000047788
4778B8888A7788
4778B8888A7788
4778B8888A7788
47788000047788
47788000047788
47788000047788
47788000047788
47788000047788
ENDCHAR
STARTCHAR hcircumflex
ENCODING 293
SWIDTH 830 0
DWIDTH 13 0
BBX 13 17 0 0
BITMAP
00000678000000
00000998200000
00003786700000
00008638800000
00000000000000
12222000122220
47788000677780
47788000677780
47788000677780
4778A555977780
4778B777A77780
4778B777A77780
4778B888A77780
47788000677780
47788000677780
47788000677780
47788000677780
ENDCHAR
STARTCHAR Hbar
ENCODING 294
SWIDTH 901 0
DWIDTH 14 0
BBX 16 13 -1 0
BITMAP
0466880000466880
2277885555277884
0477880000477880
2677895555677894
0477880000477880
04778B8888A77880
04778B8888A77880
04778B8888A77880
0477880000477880
0477880000477880
0477880000477880
0477880000477880
0477880000477880
ENDCHAR
STARTCHAR hbar
ENCODING 295
SWIDTH 830 0
DWIDTH 13 0
BBX 15 12 -1 0
BITMAP
0122220001222200
0377881115777810
2177887773777740
2877898889777A40
04778A5559777800
04778B777A777800
04778B777A777800
04778B888A777800
0477880006777800
0477880006777800
0477880006777800
0477880006777800
ENDCHAR
STARTCHAR Itilde
ENCODING 296
SWIDTH 338 0
DWIDTH 5 0
BBX 11 17 -3 0
BITMAP
039888864550
095988889640
189288889800
000000000000
000466880000
000477880000
000477880000
000477880000
000477880000
000477880000
000477880000
000477880000
000477880000
000477880000
000477880000
000477880000
000477880000
ENDCHAR
STARTCHAR itilde
ENCODING 297
SWIDTH 337 0
DWIDTH 5 0
BBX 11 16 -3 0
BITMAP
039888864550
095988889640
189288889800
000000000000
000122220000
000477880000
000477880000
000477880000
000477880000
000477880000
000477880000
000477880000
000477880000
000477880000
000477880000
000477880000
ENDCHAR
STARTCHAR Imacron
ENCODING 298
SWIDTH 338 0
DWIDTH 5 0
BBX 5 13 0 0
BITMAP
466880
477880
477880
477880
477880
477880
477880
477880
477880
477880
477880
477880
477880
ENDCHAR
STARTCHAR imacron
ENCODING 299
SWIDTH 337 0
DWIDTH 5 0
BBX 5 12 0 0
BITMAP
122220
477880
477880
477880
477880
477880
477880
477880
477880
477880
477880
477880
ENDCHAR
STARTCHAR Ibreve
ENCODING 300
SWIDTH 338 0
DWIDTH 5 0
BBX 5 17 0 0
BITMAP
340340
487870
036500
000000
466880
477880
477880
477880
477880
477880
477880
477880
477880
477880
477880
477880
477880
ENDCHAR
STARTCHAR ibreve
ENCODING 301
SWIDTH 337 0
DWIDTH 5 0
BBX 5 15 0 0
BITMAP
340340
487870
036500
122220
477880
477880
477880
477880
477880
477880
477880
477880
477880
477880
477880
ENDCHAR
STARTCHAR Iogonek
ENCODING 302
SWIDTH 338 0
DWIDTH 5 0
BBX 5 18 0 -5
BITMAP
466880
477880
477880
477880
477880
477880
477880
477880
477880
477880
477880
477880
477EE0
009540
027A20
027860
027880
013440
ENDCHAR
STARTCHAR iogonek
ENCODING 303
SWIDTH 337 0
DWIDTH 5 0
BBX 5 17 0 -5
BITMAP
122220
477880
477880
477880
477880
477880
477880
477880
477880
477880
477880
477EE0
009540
017A20
027860
027880
013440
ENDCHAR
STARTCHAR Idotaccent
ENCODING 304
SWIDTH 338 0
DWIDTH 5 0
BBX 5 17 0 0
BITMAP
068810
068810
068810
000000
466880
477880
477880
477880
477880
477880
477880
477880
477880
477880
477880
477880
477880
ENDCHAR
STARTCHAR dotlessi
ENCODING 305
SWIDTH 337 0
DWIDTH 5 0
BBX 5 12 0 0
BITMAP
122220
477880
477880
477880
477880
477880
477880
477880
477880
477880
477880
477880
ENDCHAR
STARTCHAR IJ
ENCODING 306
SWIDTH 774 0
DWIDTH 12 0
BBX 12 14 0 -1
BITMAP
466780046688
477880047788
477880047788
477880047788
477880047788
477880047788
477880047788
477880047788
477880047788
4778816A7668
477881777973
47788176A690
477881767910
000002873000
ENDCHAR
STARTCHAR ij
ENCODING 307
SWIDTH 729 0
DWIDTH 12 0
BBX 11 14 0 -2
BITMAP
122220022220
477880088880
477880088880
477880088880
477880088880
477880088880
477880088880
477880088880
477880088880
477881868990
477881696680
477881787920
000002769300
000002860000
ENDCHAR
STARTCHAR Jcircumflex
ENCODING 308
SWIDTH 434 0
DWIDTH 7 0
BBX 7 19 0 -1
BITMAP
000A5500
00388900
00859720
00894670
00000000
00886640
00887740
00887740
00887740
00887740
00887740
00887740
00887740
00887640
47799720
47968900
47798400
46695000
58610000
ENDCHAR
STARTCHAR jcircumflex
ENCODING 309
SWIDTH 393 0
DWIDTH 6 0
BBX 6 19 0 -2
BITMAP
006780
009981
036867
086389
000000
012222
057778
057778
057778
057778
057778
057778
057778
057678
3A8667
477973
46A580
577900
583000
ENDCHAR
STARTCHAR Kcommaaccent
ENCODING 310
SWIDTH 815 0
DWIDTH 13 0
BBX 13 20 0 -7
BITMAP
46688000886560
47788006679910
47788019976700
47788076799100
47788199767000
47788767990000
47788996580000
47788767890000
47788189766000
47788076799000
47788019976600
47788007679910
47788001997670
00000000000000
00000776200000
00000887200000
00000387200000
00000598100000
00000487000000
00000210000000
ENDCHAR
STARTCHAR kcommaaccent
ENCODING 311
SWIDTH 801 0
DWIDTH 13 0
BBX 13 19 0 -7
BITMAP
12222000221120
47788004789720
47788009866800
47788056898100
47788199767000
47788767991000
47788986680000
47788667981000
47788098668000
47788046898200
47788009767900
47788003799730
00000000000000
00000777000000
00000888000000
00000388000000
00000689000000
00000586000000
00000210000000
ENDCHAR
STARTCHAR kgreenlandic
ENCODING 312
SWIDTH 801 0
DWIDTH 13 0
BBX 13 12 0 0
BITMAP
12222000221120
47788004789720
47788009866800
47788056898100
47788199767000
47788767991000
47788986680000
47788667981000
47788098668000
47788046898200
47788009767900
47788003799730
ENDCHAR
STARTCHAR Lacute
ENCODING 313
SWIDTH 604 0
DWIDTH 10 0
BBX 10 19 0 0
BITMAP
0000000010
0000001783
0000188696
0002869600
0000350000
0000000000
4668800000
4778800000
4778800000
4778800000
4778800000
4778800000
4778800000
4778800000
4778800000
4778800000
4778B88881
4778B88881
4778B88881
ENDCHAR
STARTCHAR lacute
ENCODING 314
SWIDTH 583 0
DWIDTH 9 0
BBX 9 17 0 0
BITMAP
0000001000
0000287300
0039779400
0477940000
0053000000
1222200000
4778800000
4778800000
4778800000
4778800000
4778800000
4778800000
4778800000
4778800000
4778B88870
4778B88870
4778B88870
ENDCHAR
STARTCHAR Lcommaaccent
ENCODING 315
SWIDTH 604 0
DWIDTH 10 0
BBX 10 20 0 -7
BITMAP
4668800000
4778800000
4778800000
4778800000
4778800000
4778800000
4778800000
4778800000
4778800000
4778800000
4778B88881
4778B88881
4778B88881
0000000000
0006665000
0007776000
0003665000
0003A64000
0003790000
0001100000
ENDCHAR
STARTCHAR lcommaaccent
ENCODING 316
SWIDTH 583 0
DWIDTH 9 0
BBX 9 19 0 -7
BITMAP
1222200000
4778800000
4778800000
4778800000
4778800000
4778800000
4778800000
4778800000
4778800000
4778B88870
4778B88870
4778B88870
0000000000
0007662000
0008873000
0003863000
0005971000
0004870000
0002100000
ENDCHAR
STARTCHAR Lcaron
ENCODING 317
SWIDTH 856 0
DWIDTH 14 0
BBX 14 14 0 0
BITMAP
00000000007652
46678000008873
47788000004863
47788000004971
47788000004780
47788000002200
47788000000000
47788000000000
47788000000000
47788000000000
47788000000000
4778B888810000
4778B888810000
4778B888810000
ENDCHAR
STARTCHAR lcaron
ENCODING 318
SWIDTH 584 0
DWIDTH 9 0
BBX 9 12 0 0
BITMAP
1222225770
4778827880
4778813880
4778819580
4778816920
4778803000
4778800000
4778800000
4778800000
4778B88870
4778B88870
4778B88870
ENDCHAR
STARTCHAR Ldot
ENCODING 319
SWIDTH 604 0
DWIDTH 10 0
BBX 10 13 0 0
BITMAP
4668800000
4778800000
4778800000
4778800000
4778800000
4778838840
4778838840
4778838840
4778800000
4778800000
4778B88881
4778B88881
4778B88881
ENDCHAR
STARTCHAR ldot
ENCODING 320
SWIDTH 582 0
DWIDTH 9 0
BBX 9 12 0 0
BITMAP
1222200000
4778800000
4778800000
4778838840
4778838840
4778838840
4778800000
4778800000
4778800000
4778B88870
4778B88870
4778B88870
ENDCHAR
STARTCHAR Lslash
ENCODING 321
SWIDTH 604 0
DWIDTH 10 0
BBX 11 13 -1 0
BITMAP
046688000000
047788000000
047788001000
047788782000
047788783000
717788383000
717788300000
167788000000
547788000000
047788000000
04778B888810
04778B888810
04778B888810
ENDCHAR
STARTCHAR lslash
ENCODING 322
SWIDTH 581 0
DWIDTH 9 0
BBX 10 12 -1 0
BITMAP
0122220000
0477880000
0477880110
0477888820
0477887820
8177886830
8177881000
5777880000
3477880000
04778B8887
04778B8887
04778B8887
ENDCHAR
STARTCHAR Nacute
ENCODING 323
SWIDTH 877 0
DWIDTH 14 0
BBX 14 19 0 0
BITMAP
00000000001000
00000000179400
00000017969600
00000186960000
00000026000000
00000000000000
4A866800087664
4A689740088774
45975890088774
47889867088774
47696798288774
47789867988774
47787699678774
47788976898774
47788289769674
477880768A8774
47788009867A54
477880047986A4
477880008669A4
ENDCHAR
STARTCHAR nacute
ENCODING 324
SWIDTH 787 0
DWIDTH 13 0
BBX 12 16 0 0
BITMAP
000000005951
000000596881
000007688100
000000710000
122212000222
4C857A000888
487996600888
46A669910888
478897680888
476967A82888
477899669788
477856897588
477809758A78
477803798678
477800866999
47780018976C
ENDCHAR
STARTCHAR Ncommaaccent
ENCODING 325
SWIDTH 877 0
DWIDTH 14 0
BBX 14 20 0 -7
BITMAP
4A866800087664
4A689740088774
45975890088774
47889867088774
47696798288774
47789867988774
47787699678774
47788976898774
47788289769674
477880768A8774
47788009867A54
477880047986A4
477880008669A4
00000000000000
00000566600000
00000677700000
00000256600000
000003A5500000
00000279000000
00000120000000
ENDCHAR
STARTCHAR ncommaaccent
ENCODING 326
SWIDTH 787 0
DWIDTH 13 0
BBX 12 19 0 -7
BITMAP
122212000222
4C857A000888
487996600888
46A669910888
478897680888
476967A82888
477899669788
477856897588
477809758A78
477803798678
477800866999
47780018976C
000000000000
000016770000
000017880000
000013880000
000019580000
000017920000
000002000000
ENDCHAR
STARTCHAR Ncaron
ENCODING 327
SWIDTH 877 0
DWIDTH 14 0
BBX 14 18 0 0
BITMAP
00003577530000
00000959900000
00000776700000
000001D7200000
00000000000000
4A866800087664
4A689740088774
45975890088774
47889867088774
47696798288774
47789867988774
47787699678774
47788976898774
47788289769674
477880768A8774
47788009867A54
477880047986A4
477880008669A4
ENDCHAR
STARTCHAR ncaron
ENCODING 328
SWIDTH 787 0
DWIDTH 13 0
BBX 12 17 0 0
BITMAP
000078357000
000085973000
000037890000
00000B660000
000000000000
122212000222
4C857A000888
487996600888
46A669910888
478897680888
476967A82888
477899669788
477856897588
477809758A78
477803798678
477800866999
47780018976C
ENDCHAR
STARTCHAR Eng
ENCODING 330
SWIDTH 874 0
DWIDTH 14 0
BBX 14 18 0 -5
BITMAP
4A866800088664
4A699750088774
45A76891088774
47789768088774
47686897488774
4778A758988774
477857A7588774
47788867988774
47788198488774
47788047988774
47788009488774
47788001988774
47788000388774
00000000099863
00000005868990
00000005879680
00000005996A10
00000005897000
ENDCHAR
STARTCHAR eng
ENCODING 331
SWIDTH 691 0
DWIDTH 11 0
BBX 11 17 0 -5
BITMAP
122212022210
4C857A077750
487996677750
46A669987750
4788975B7750
476967A77750
4778996A7750
477856887750
477809797750
477803797750
477800987750
477800197750
000000087650
000000689720
000000595900
000000579100
000000420000
ENDCHAR
STARTCHAR Omacron
ENCODING 332
SWIDTH 933 0
DWIDTH 15 0
BBX 15 15 0 -1
BITMAP
0000036762000000
0004976667930000
0067886668775000
0479597779597300
0985879796957900
3689740004698720
7667900000976660
8667600000776670
7667800000976660
4689830004798730
0986888697858900
0479697779597400
0077886668876000
0004966666940000
0000047873000000
ENDCHAR
STARTCHAR omacron
ENCODING 333
SWIDTH 833 0
DWIDTH 13 0
BBX 13 13 0 -1
BITMAP
00016988710000
00396888686000
03887687696600
0986A67696A810
468A6735897670
76679000567890
87676000378880
76679000766890
279959696A8660
09689777A68900
0196A666988300
00197676693000
00002787400000
ENDCHAR
STARTCHAR Obreve
ENCODING 334
SWIDTH 933 0
DWIDTH 15 0
BBX 15 18 0 -1
BITMAP
0000034043000000
0000068786000000
0000004630000000
0000036762000000
0004976667930000
0067886668775000
0479597779597300
0985879796957900
3689740004698720
7667900000976660
8667600000776670
7667800000976660
4689830004798730
0986888697858900
0479697779597400
0077886668876000
0004966666940000
0000047873000000
ENDCHAR
STARTCHAR obreve
ENCODING 335
SWIDTH 833 0
DWIDTH 13 0
BBX 13 16 0 -1
BITMAP
00003403400000
00005878700000
00000364000000
00016988710000
00396888686000
03887687696600
0986A67696A810
468A6735897670
76679000567890
87676000378880
76679000766890
279959696A8660
09689777A68900
0196A666988300
00197676693000
00002787400000
ENDCHAR
STARTCHAR Ohungarumlaut
ENCODING 336
SWIDTH 933 0
DWIDTH 15 0
BBX 16 20 0 -1
BITMAP
0000000010000010
0000003962004952
0000497793596892
0005779307688200
0000520000620000
0000036762000000
0004976667930000
0067886668775000
0479597779597300
0985879796957900
3689740004698720
7667900000976660
8667600000776670
7667800000976660
4689830004798730
0986888697858900
0479697779597400
0077886668876000
0004966666940000
0000047873000000
ENDCHAR
STARTCHAR ohungarumlaut
ENCODING 337
SWIDTH 833 0
DWIDTH 13 0
BBX 15 18 0 -1
BITMAP
0000000100000100
0000028730039620
0003977944977930
0047794057793000
0005300006200000
0001698871000000
0039688868600000
0388768769660000
0986A67696A81000
468A673589767000
7667900056789000
8767600037888000
7667900076689000
279959696A866000
09689777A6890000
0196A66698830000
0019767669300000
0000278740000000
ENDCHAR
STARTCHAR OE
ENCODING 338
SWIDTH 1317 0
DWIDTH 21 0
BBX 21 15 0 -1
BITMAP
0000036763000000000000
00049766679716B8888840
00678866697617C8888840
04795977795917C8888840
0985879796971770000000
4689730005691770000000
76778000009517C8850000
86776000008617C8850000
76778000009517C8850000
4689830004781770000000
0986888697871770000000
05696977795917C8888840
00768866688617C8888840
00049666669717C8888840
0000047874000000000000
ENDCHAR
STARTCHAR oe
ENCODING 339
SWIDTH 1174 0
DWIDTH 19 0
BBX 19 13 0 -1
BITMAP
00016989712234444410
003968887588A7777710
038865863788A7777710
0981A1519588A8888810
468A5735858891111100
761690005388A8888700
872260003588A8888700
762790007288A8888700
27991969578880000000
096697269188A8888810
0196A3218688A8888810
001976777688A8888810
00002787300000000000
ENDCHAR
STARTCHAR Racute
ENCODING 340
SWIDTH 843 0
DWIDTH 14 0
BBX 13 19 0 0
BITMAP
00000000100000
00000039620000
00004977930000
00057793000000
00005200000000
00000000000000
4A888888895000
46A88888986900
4769888886A660
47788888877990
47788000198980
47789888968990
47789777796790
47789777788920
4778977777B300
4778966BBA8100
47788008877600
47788004778900
47788000999820
ENDCHAR
STARTCHAR Rcommaaccent
ENCODING 342
SWIDTH 843 0
DWIDTH 14 0
BBX 13 20 0 -7
BITMAP
4A888888895000
46A88888986900
4769888886A660
47788888877990
47788000198980
47789888968990
47789777796790
47789777788920
4778977777B300
4778966BBA8100
47788008877600
47788004778900
47788000999820
00000000000000
00000777000000
00000888000000
00000388000000
00000779000000
00000694000000
00000200000000
ENDCHAR
STARTCHAR rcommaaccent
ENCODING 343
SWIDTH 831 0
DWIDTH 13 0
BBX 13 19 0 -7
BITMAP
14444444310000
48777777688100
47A77777796900
477C8888888570
4778A888967890
47789888967880
47789777797680
47789777787A20
4778977766A400
4778978BBA9000
47788009998100
47788008777700
00000000000000
00002667000000
00003788000000
00001378000000
00001948000000
000017A2000000
00001200000000
ENDCHAR
STARTCHAR Rcaron
ENCODING 344
SWIDTH 843 0
DWIDTH 14 0
BBX 13 18 0 0
BITMAP
00862780000000
00568670000000
00099810000000
00087800000000
00000000000000
4A888888895000
46A88888986900
4769888886A660
47788888877990
47788000198980
47789888968990
47789777796790
47789777788920
4778977777B300
4778966BBA8100
47788008877600
47788004778900
47788000999820
ENDCHAR
STARTCHAR rcaron
ENCODING 345
SWIDTH 831 0
DWIDTH 13 0
BBX 13 17 0 0
BITMAP
00006548710000
00002777900000
00000986400000
00000599000000
00000000000000
14444444310000
48777777688100
47A77777796900
477C8888888570
4778A888967890
47789888967880
47789777797680
47789777787A20
4778977766A400
4778978BBA9000
47788009998100
47788008777700
ENDCHAR
STARTCHAR Sacute
ENCODING 346
SWIDTH 682 0
DWIDTH 11 0
BBX 11 20 0 -1
BITMAP
000000000100
000000039620
000004977930
000057793000
000005200000
000257641000
019766768700
095976679630
479877796100
7777A7760000
7676A7630000
468977679100
096877795900
02A667879720
000478A87650
000666A87750
01787777A720
469667695800
188676679000
001588630000
ENDCHAR
STARTCHAR sacute
ENCODING 347
SWIDTH 683 0
DWIDTH 11 0
BBX 11 18 0 -1
BITMAP
000000000100
000000039620
000004977930
000057793000
000005200000
000478751000
03A677778800
198877679630
667954586100
766811000000
479678897000
087788885900
003888879640
001000076660
046988879640
468877896900
059877798100
000134300000
ENDCHAR
STARTCHAR Scircumflex
ENCODING 348
SWIDTH 682 0
DWIDTH 11 0
BBX 11 19 0 -1
BITMAP
000085700000
000189900000
000669640000
000883780000
000257641000
019766768700
095976679630
479877796100
7777A7760000
7676A7630000
468977679100
096877795900
02A667879720
000478A87650
000666A87750
01787777A720
469667695800
188676679000
001588630000
ENDCHAR
STARTCHAR scircumflex
ENCODING 349
SWIDTH 683 0
DWIDTH 11 0
BBX 11 18 0 -1
BITMAP
000085700000
000189900000
000669640000
000883780000
000000000000
000478751000
03A677778800
198877679630
667954586100
766811000000
479678897000
087788885900
003888879640
001000076660
046988879640
468877896900
059877798100
000134300000
ENDCHAR
STARTCHAR Scedilla
ENCODING 350
SWIDTH 682 0
DWIDTH 11 0
BBX 11 20 0 -6
BITMAP
000257641000
019766768700
095976679630
479877796100
7777A7760000
7676A7630000
468977679100
096877795900
02A667879720
000478A87650
000666A87750
01787777A720
469667695800
188676679000
001589730000
0004A6400000
00286A400000
005670000000
004698200000
000898200000
ENDCHAR
STARTCHAR scedilla
ENCODING 351
SWIDTH 683 0
DWIDTH 11 0
BBX 11 17 0 -5
BITMAP
000478751000
03A677778800
198877679630
667954586100
766811000000
479678897000
087788885900
003888879640
001000076660
046988879640
468877896900
059878798100
0005DA700000
00286A400000
005670000000
004698200000
000898200000
ENDCHAR
STARTCHAR Scaron
ENCODING 352
SWIDTH 682 0
DWIDTH 11 0
BBX 11 19 0 -1
BITMAP
000862780000
000568670000
000099810000
000087800000
000257641000
019766768700
095976679630
479877796100
7777A7760000
7676A7630000
468977679100
096877795900
02A667879720
000478A87650
000666A87750
01787777A720
469667695800
188676679000
001588630000
ENDCHAR
STARTCHAR scaron
ENCODING 353
SWIDTH 683 0
DWIDTH 11 0
BBX 11 18 0 -1
BITMAP
000862780000
000568670000
000099810000
000087800000
000000000000
000478751000
03A677778800
198877679630
667954586100
766811000000
479678897000
087788885900
003888879640
001000076660
046988879640
468877896900
059877798100
000134300000
ENDCHAR
STARTCHAR Tcommaaccent
ENCODING 354
SWIDTH 591 0
DWIDTH 9 0
BBX 9 18 0 -5
BITMAP
4888888880
4888888880
489999A880
0047788000
0047788000
0047788000
0047788000
0047788000
0047788000
0047788000
0047788000
0047788000
0047798000
0028680000
00A5880000
0179000000
0088850000
0069840000
ENDCHAR
STARTCHAR tcommaaccent
ENCODING 355
SWIDTH 588 0
DWIDTH 9 0
BBX 9 17 0 -5
BITMAP
2444444430
3777777760
3777777760
48999AA880
0047788000
0047788000
0047788000
0047788000
0047788000
0047788000
0047788000
0047798000
0028680000
00A5880000
0179000000
0088850000
0069840000
ENDCHAR
STARTCHAR Tcaron
ENCODING 356
SWIDTH 591 0
DWIDTH 9 0
BBX 9 18 0 0
BITMAP
0075387000
0037878000
0009973000
0006890000
0000000000
4888888880
4888888880
489999A880
0047788000
0047788000
0047788000
0047788000
0047788000
0047788000
0047788000
0047788000
0047788000
0047788000
ENDCHAR
STARTCHAR tcaron
ENCODING 357
SWIDTH 842 0
DWIDTH 13 0
BBX 13 12 0 0
BITMAP
24444444307770
37777777608880
37777777604880
48999AA8807790
00477880005850
00477880003100
00477880000000
00477880000000
00477880000000
00477880000000
00477880000000
00477880000000
ENDCHAR
STARTCHAR Tbar
ENCODING 358
SWIDTH 591 0
DWIDTH 9 0
BBX 9 13 0 0
BITMAP
4888888880
4888888880
489999A880
0047788000
0047788000
4817788870
4817788870
4877789870
0047788000
0047788000
0047788000
0047788000
0047788000
ENDCHAR
STARTCHAR tbar
ENCODING 359
SWIDTH 588 0
DWIDTH 9 0
BBX 9 12 0 0
BITMAP
2444444430
3777777760
3777777760
48999AA880
0047788000
0047788000
4817788870
4817788870
4887789870
0047788000
0047788000
0047788000
ENDCHAR
STARTCHAR Utilde
ENCODING 360
SWIDTH 905 0
DWIDTH 14 0
BBX 14 18 0 -1
BITMAP
00079888817700
00568888895900
00863688889300
00000000000000
56678000026788
57778000027888
57778000027888
57778000027888
57778000027888
57778000027888
57778000027888
57788000036898
37898200086678
09956976959865
066A6866787790
00869777696920
00069677679100
00000578620000
ENDCHAR
STARTCHAR utilde
ENCODING 361
SWIDTH 795 0
DWIDTH 13 0
BBX 13 17 0 -1
BITMAP
00698888376100
02778888879000
06655888895000
00000000000000
12222000222200
57778000888810
57778000888810
57778000888810
57778000888810
57778000888810
57778000888810
57789001898900
27996969678900
09769778796600
02978666959000
00297776780000
00004786200000
ENDCHAR
STARTCHAR Umacron
ENCODING 362
SWIDTH 905 0
DWIDTH 14 0
BBX 14 14 0 -1
BITMAP
56678000026788
57778000027888
57778000027888
57778000027888
57778000027888
57778000027888
57778000027888
57788000036898
37898200086678
09956976959865
066A6866787790
00869777696920
00069677679100
00000578620000
ENDCHAR
STARTCHAR umacron
ENCODING 363
SWIDTH 795 0
DWIDTH 13 0
BBX 13 13 0 -1
BITMAP
12222000222200
57778000888810
57778000888810
57778000888810
57778000888810
57778000888810
57778000888810
57789001898900
27996969678900
09769778796600
02978666959000
00297776780000
00004786200000
ENDCHAR
STARTCHAR Ubreve
ENCODING 364
SWIDTH 905 0
DWIDTH 14 0
BBX 14 18 0 -1
BITMAP
00001420330000
00000887830000
00000056200000
00000000000000
56678000026788
57778000027888
57778000027888
57778000027888
57778000027888
57778000027888
57778000027888
57788000036898
37898200086678
09956976959865
066A6866787790
00869777696920
00069677679100
00000578620000
ENDCHAR
STARTCHAR ubreve
ENCODING 365
SWIDTH 795 0
DWIDTH 13 0
BBX 13 16 0 -1
BITMAP
00004304300000
00007878500000
00000563000000
12222000222200
57778000888810
57778000888810
57778000888810
57778000888810
57778000888810
57778000888810
57789001898900
27996969678900
09769778796600
02978666959000
00297776780000
00004786200000
ENDCHAR
STARTCHAR Uring
ENCODING 366
SWIDTH 905 0
DWIDTH 14 0
BBX 14 20 0 -1
BITMAP
00000066200000
00000777910000
00000771940000
00000778810000
00000067300000
00000000000000
56678000026788
57778000027888
57778000027888
57778000027888
57778000027888
57778000027888
57778000027888
57788000036898
37898200086678
09956976959865
066A6866787790
00869777696920
00069677679100
00000578620000
ENDCHAR
STARTCHAR uring
ENCODING 367
SWIDTH 795 0
DWIDTH 13 0
BBX 13 18 0 -1
BITMAP
00000563000000
00006778300000
00007808600000
00006778300000
00000674000000
12222000222200
57778000888810
57778000888810
57778000888810
57778000888810
57778000888810
57778000888810
57789001898900
27996969678900
09769778796600
02978666959000
00297776780000
00004786200000
ENDCHAR
STARTCHAR Uhungarumlaut
ENCODING 368
SWIDTH 905 0
DWIDTH 14 0
BBX 16 19 0 -1
BITMAP
0000005951006940
0000596882796971
0007688108697100
0000710001610000
0000000000000000
5667800002678800
5777800002788800
5777800002788800
5777800002788800
5777800002788800
5777800002788800
5777800002788800
5778800003689800
3789820008667800
0995697695986500
066A686678779000
0086977769692000
0006967767910000
0000057862000000
ENDCHAR
STARTCHAR uhungarumlaut
ENCODING 369
SWIDTH 795 0
DWIDTH 13 0
BBX 15 18 0 -1
BITMAP
0000000100000000
0000049520059510
0004968926968810
0066882086881000
0006200007100000
1222200022220000
5777800088881000
5777800088881000
5777800088881000
5777800088881000
5777800088881000
5777800088881000
5778900189890000
2799696967890000
0976977879660000
0297866695900000
0029777678000000
0000478620000000
ENDCHAR
STARTCHAR Uogonek
ENCODING 370
SWIDTH 905 0
DWIDTH 14 0
BBX 14 19 0 -6
BITMAP
56678000026788
57778000027888
57778000027888
57778000027888
57778000027888
57778000027888
57778000027888
57788000036898
37898200086678
09956976959865
066A6866787790
00869777696920
00069677679100
000006DD620000
00000954000000
000017A2000000
00002786000000
00002788000000
00001344000000
ENDCHAR
STARTCHAR uogonek
ENCODING 371
SWIDTH 794 0
DWIDTH 13 0
BBX 12 18 0 -6
BITMAP
122220002222
677780008888
677780008888
677780008888
677780008888
677780008888
677780008888
577890018989
279968696789
097697787966
029786669590
002967768800
00004DD62000
000095400000
00017A200000
000278600000
000278800000
000134400000
ENDCHAR
STARTCHAR Ycircumflex
ENCODING 374
SWIDTH 789 0
DWIDTH 13 0
BBX 13 18 0 0
BITMAP
00000A55000000
00002889000000
00008597200000
00008846700000
00000000000000
76666000887720
18898004778800
08777608877300
02789847788000
00877698774000
00278778880000
00087887740000
00038788800000
0000B777600000
00008877400000
00008877400000
00008877400000
00008877400000
ENDCHAR
STARTCHAR ycircumflex
ENCODING 375
SWIDTH 733 0
DWIDTH 12 0
BBX 12 17 0 0
BITMAP
00003A800000
000088650000
000085890000
000566872000
000000000000
222210022222
667780088872
088873477880
056788887730
008876778800
005679877400
000867888000
0005B8774000
000098880000
000088880000
000088880000
000088880000
ENDCHAR
STARTCHAR Ydieresis
ENCODING 376
SWIDTH 789 0
DWIDTH 13 0
BBX 13 16 0 0
BITMAP
00444305541000
00777508872000
00111102210000
76666000887720
18898004778800
08777608877300
02789847788000
00877698774000
00278778880000
00087887740000
00038788800000
0000B777600000
00008877400000
00008877400000
00008877400000
00008877400000
ENDCHAR
STARTCHAR Zacute
ENCODING 377
SWIDTH 854 0
DWIDTH 14 0
BBX 13 19 0 0
BITMAP
00000000001000
00000000288300
00000028869500
00000386950000
00000044000000
00000000000000
388888888889D0
38888888885960
38888888287870
38888834969690
00000187878780
00003969696910
00087878786000
03969696920000
47878786000000
29696926888880
28786488888880
36958888888880
4D988888888880
ENDCHAR
STARTCHAR zacute
ENCODING 378
SWIDTH 714 0
DWIDTH 11 0
BBX 11 17 0 0
BITMAP
000000000100
000000028830
000002886950
000038694000
000004400000
144444213210
277776966A70
2777786A8560
38888A858900
0000858A7300
00037A768000
000A75991000
007599650000
029967900000
0966A8588870
56A858888870
5858A6888870
ENDCHAR
STARTCHAR Zdotaccent
ENCODING 379
SWIDTH 854 0
DWIDTH 14 0
BBX 13 17 0 0
BITMAP
00000588200000
00000588200000
00000588200000
00000000000000
388888888889D0
38888888885960
38888888287870
38888834969690
00000187878780
00003969696910
00087878786000
03969696920000
47878786000000
29696926888880
28786488888880
36958888888880
4D988888888880
ENDCHAR
STARTCHAR zdotaccent
ENCODING 380
SWIDTH 714 0
DWIDTH 11 0
BBX 11 15 0 0
BITMAP
000058820000
000058820000
000058820000
144444213210
277776966A70
2777786A8560
38888A858900
0000858A7300
00037A768000
000A75991000
007599650000
029967900000
0966A8588870
56A858888870
5858A6888870
ENDCHAR
STARTCHAR Zcaron
ENCODING 381
SWIDTH 854 0
DWIDTH 14 0
BBX 13 18 0 0
BITMAP
00005558710000
00001868900000
00000986500000
000004A9000000
00000000000000
388888888889D0
38888888885960
38888888287870
38888834969690
00000187878780
00003969696910
00087878786000
03969696920000
47878786000000
29696926888880
28786488888880
36958888888880
4D988888888880
ENDCHAR
STARTCHAR zcaron
ENCODING 382
SWIDTH 714 0
DWIDTH 11 0
BBX 11 17 0 0
BITMAP
000654871000
000287790000
000098640000
00004A900000
000000000000
144444213210
277776966A70
2777786A8560
38888A858900
0000858A7300
00037A768000
000A75991000
007599650000
029967900000
0966A8588870
56A858888870
5858A6888870
ENDCHAR
STARTCHAR florin
ENCODING 402
SWIDTH 388 0
DWIDTH 6 0
BBX 6 16 0 -2
BITMAP
000375
006764
018964
0467A3
057780
487795
487795
487795
057780
057780
057780
057770
497660
488910
37A400
110000
ENDCHAR
STARTCHAR uni01C4
ENCODING 452
SWIDTH 1740 0
DWIDTH 28 0
BBX 28 18 0 0
BITMAP
0000000000000000003677540000
0000000000000000000959900000
0000000000000000000776800000
00000000000000000001D7200000
0000000000000000000000000000
4A888888893000188888888889D3
46A8888887760018888888884962
4769888886975018888888368781
4778888868699018888852969692
4778800038986500000068787872
4778800008666800002969696930
4778800006667900068787877000
4778800008766802969696930000
4778800038A76518787877000000
4778888877699119696934888882
476A888886966017878388888882
46A8888887770016958888888882
4A8888888940002E988888888882
ENDCHAR
STARTCHAR uni01C5
ENCODING 453
SWIDTH 1601 0
DWIDTH 26 0
BBX 26 17 0 0
BITMAP
00000000000000000357753000
00000000000000000095990000
00000000000000000077670000
0000000000000000001D720000
4A888888893000000000000000
46A88888877600044444223110
47698888869750177776858962
477888886869901777778A6680
4778800038986518888A669810
47788000086668000056985600
47788000066679000198579000
47788000087668000957A73000
4778800038A7650047A7580000
4778888877699100A759910000
476A8888869660075896688881
46A88888877700299669788881
4A888888894000466A86888881
ENDCHAR
STARTCHAR Scommaaccent
ENCODING 536
SWIDTH 682 0
DWIDTH 11 0
BBX 11 21 0 -7
BITMAP
000257641000
019766768700
095976679630
479877796100
7777A7760000
7676A7630000
468977679100
096877795900
02A667879720
000478A87650
000666A87750
01787777A720
469667695800
188676679000
001588630000
000167700000
000188800000
000038800000
000095800000
000079300000
000020000000
ENDCHAR
STARTCHAR scommaaccent
ENCODING 537
SWIDTH 683 0
DWIDTH 11 0
BBX 11 19 0 -7
BITMAP
000478751000
03A677778800
198877679630
667954586100
766811000000
479678897000
087788885900
003888879640
001000076660
046988879640
468877896900
059877798100
000134300000
000077700000
000088800000
000038800000
000095900000
000069300000
000020000000
ENDCHAR
STARTCHAR uni021A
ENCODING 538
SWIDTH 591 0
DWIDTH 9 0
BBX 9 20 0 -7
BITMAP
4888888880
4888888880
489999A880
0047788000
0047788000
0047788000
0047788000
0047788000
0047788000
0047788000
0047788000
0047788000
0047788000
0000000000
0007762000
0008872000
0003872000
0005881000
0004870000
0002100000
ENDCHAR
STARTCHAR uni021B
ENCODING 539
SWIDTH 588 0
DWIDTH 9 0
BBX 9 19 0 -7
BITMAP
2444444430
3777777760
3777777760
48999AA880
0047788000
0047788000
0047788000
0047788000
0047788000
0047788000
0047788000
0047788000
0000000000
0007761000
0008872000
0003871000
0006880000
0004860000
0002100000
ENDCHAR
STARTCHAR uni0237
ENCODING 567
SWIDTH 393 0
DWIDTH 6 0
BBX 6 14 0 -2
BITMAP
012222
057778
057778
057778
057778
057778
057778
057778
057678
3A8667
477973
46A580
577900
583000
ENDCHAR
STARTCHAR circumflex
ENCODING 710
SWIDTH 376 0
DWIDTH 6 0
BBX 6 4 0 12
BITMAP
01B710
068670
094990
368863
ENDCHAR
STARTCHAR caron
ENCODING 711
SWIDTH 362 0
DWIDTH 6 0
BBX 6 4 0 12
BITMAP
456762
186890
087660
03B810
ENDCHAR
STARTCHAR breve
ENCODING 728
SWIDTH 360 0
DWIDTH 6 0
BBX 6 3 0 12
BITMAP
340141
298880
026510
ENDCHAR
STARTCHAR dotaccent
ENCODING 729
SWIDTH 255 0
DWIDTH 4 0
BBX 4 3 0 10
BITMAP
3884
3884
3884
ENDCHAR
STARTCHAR ring
ENCODING 730
SWIDTH 330 0
DWIDTH 5 0
BBX 5 5 0 12
BITMAP
036500
387760
680870
387760
047600
ENDCHAR
STARTCHAR ogonek
ENCODING 731
SWIDTH 250 0
DWIDTH 4 0
BBX 4 6 0 -5
BITMAP
0273
2952
6581
7764
7776
3333
ENDCHAR
STARTCHAR tilde
ENCODING 732
SWIDTH 665 0
DWIDTH 11 0
BBX 11 3 0 9
BITMAP
069888837610
277888887900
665588889500
ENDCHAR
STARTCHAR hungarumlaut
ENCODING 733
SWIDTH 837 0
DWIDTH 13 0
BBX 13 5 0 11
BITMAP
00000100000100
00018830028730
02886962987940
28695047794000
03500004400000
ENDCHAR
STARTCHAR uni0307
ENCODING 775
SWIDTH 260 0
DWIDTH 4 0
BBX 4 3 0 6
BITMAP
3884
3884
3884
ENDCHAR
STARTCHAR uni030F
ENCODING 783
SWIDTH 554 0
DWIDTH 9 0
BBX 9 7 0 11
BITMAP
2110211000
4680667000
0990199000
0765087400
0189037900
0097209810
0011101110
ENDCHAR
STARTCHAR uni0311
ENCODING 785
SWIDTH 375 0
DWIDTH 6 0
BBX 6 3 0 12
BITMAP
016610
197791
241042
ENDCHAR
STARTCHAR uni0326
ENCODING 806
SWIDTH 274 0
DWIDTH 4 0
BBX 4 6 0 -7
BITMAP
3667
3778
1478
2947
17A1
1200
ENDCHAR
STARTCHAR Omega
ENCODING 937
SWIDTH 92 0
DWIDTH 1 0
BBX 1 1 0 0
BITMAP
00
ENDCHAR
STARTCHAR uni00B5.dup2
ENCODING 956
SWIDTH 802 0
DWIDTH 13 0
BBX 13 14 0 -2
BITMAP
12222000222210
47788000888730
47788000888730
47788000888730
47788000888730
47788000888730
47788000888730
47788000998720
47788769689900
47788677886800
4778876696A100
47788776791000
47788887300000
35566000000000
ENDCHAR
STARTCHAR pi
ENCODING 960
SWIDTH 92 0
DWIDTH 1 0
BBX 1 1 0 0
BITMAP
00
ENDCHAR
STARTCHAR endash
ENCODING 8211
SWIDTH 473 0
DWIDTH 8 0
BBX 7 3 0 5
BITMAP
28888880
28888880
28888880
ENDCHAR
STARTCHAR emdash
ENCODING 8212
SWIDTH 615 0
DWIDTH 10 0
BBX 10 3 0 5
BITMAP
2888888881
2888888881
2888888881
ENDCHAR
STARTCHAR quoteleft
ENCODING 8216
SWIDTH 254 0
DWIDTH 4 0
BBX 4 6 0 7
BITMAP
0694
3684
6651
6776
6776
1111
ENDCHAR
STARTCHAR quoteright
ENCODING 8217
SWIDTH 251 0
DWIDTH 4 0
BBX 4 6 0 7
BITMAP
5666
5777
2567
3955
2890
1100
ENDCHAR
STARTCHAR quotesinglbase
ENCODING 8218
SWIDTH 252 0
DWIDTH 4 0
BBX 4 6 0 -3
BITMAP
5555
6777
2566
3A55
2791
1200
ENDCHAR
STARTCHAR quotedblleft
ENCODING 8220
SWIDTH 535 0
DWIDTH 9 0
BBX 8 6 0 7
BITMAP
06940298
36840948
66510891
67760888
67760888
11110111
ENDCHAR
STARTCHAR quotedblright
ENCODING 8221
SWIDTH 532 0
DWIDTH 9 0
BBX 8 6 0 7
BITMAP
56660888
57770888
25670398
39550769
28900694
11000100
ENDCHAR
STARTCHAR quotedblbase
ENCODING 8222
SWIDTH 533 0
DWIDTH 9 0
BBX 8 6 0 -3
BITMAP
55550777
67770888
25660498
3A550779
27910685
12000310
ENDCHAR
STARTCHAR dagger
ENCODING 8224
SWIDTH 636 0
DWIDTH 10 0
BBX 10 13 0 0
BITMAP
0008886200
0008887200
2559887653
377A887875
377A887875
488A887985
0008887200
0008887200
0008887200
0008887200
0008887200
0008887200
0008887200
ENDCHAR
STARTCHAR daggerdbl
ENCODING 8225
SWIDTH 648 0
DWIDTH 10 0
BBX 10 13 0 0
BITMAP
0008866400
0008877400
377B877976
377B877975
377B877975
255A877854
0008877400
1339877633
377B877975
377B877976
388B877A87
0008877400
0008877400
ENDCHAR
STARTCHAR bullet
ENCODING 8226
SWIDTH 501 0
DWIDTH 8 0
BBX 8 7 0 2
BITMAP
02988920
09699791
46700765
67400377
37900964
09688690
00788700
ENDCHAR
STARTCHAR ellipsis
ENCODING 8230
SWIDTH 676 0
DWIDTH 11 0
BBX 11 3 0 0
BITMAP
388488758820
388488758820
388488758820
ENDCHAR
STARTCHAR perthousand
ENCODING 8240
SWIDTH 447 0
DWIDTH 7 0
BBX 7 15 0 -2
BITMAP
00036880
00076670
00098630
00099800
00378900
00766700
00986300
00998000
03789000
07667000
09863000
09980000
37890000
76670000
54320000
ENDCHAR
STARTCHAR guilsinglleft
ENCODING 8249
SWIDTH 465 0
DWIDTH 7 0
BBX 7 8 0 2
BITMAP
00000570
00289660
39769850
28967940
26976610
4C488660
01697770
00003870
ENDCHAR
STARTCHAR guilsinglright
ENCODING 8250
SWIDTH 465 0
DWIDTH 7 0
BBX 7 8 0 2
BITMAP
37200000
36895000
26976970
18968950
04759750
367958B0
38688300
39610000
ENDCHAR
STARTCHAR fraction
ENCODING 8260
SWIDTH 447 0
DWIDTH 7 0
BBX 7 15 0 -2
BITMAP
00036880
00076670
00098630
00099800
00378900
00766700
00986300
00998000
03789000
07667000
09863000
09980000
37890000
76670000
54320000
ENDCHAR
STARTCHAR uni2074
ENCODING 8308
SWIDTH 528 0
DWIDTH 8 0
BBX 8 11 0 2
BITMAP
00189720
00767900
01997300
07679000
09964862
45771752
48888888
48888888
48888888
00000862
00000431
ENDCHAR
STARTCHAR Euro
ENCODING 8364
SWIDTH 781 0
DWIDTH 13 0
BBX 12 15 0 -1
BITMAP
000000267641
000039767768
000587977776
003896977783
009769797880
027997500000
58678A888300
067778000000
58777A888300
027997400000
009769896780
003895977783
000678877766
000049767767
000000378751
ENDCHAR
STARTCHAR trademark
ENCODING 8482
SWIDTH 1503 0
DWIDTH 24 0
BBX 24 10 0 3
BITMAP
4888888880C6570000027985
4888888880B79810000866B5
488AA9988088668000289855
000887200086898200966965
000887200088866803799675
000887200088489829769675
000887200088876795998775
000887200088819977667775
000887200088807679907775
000554100055501565404443
ENDCHAR
STARTCHAR partialdiff
ENCODING 8706
SWIDTH 108 0
DWIDTH 2 0
BBX 1 1 0 0
BITMAP
00
ENDCHAR
STARTCHAR uni2206
ENCODING 8710
SWIDTH 108 0
DWIDTH 2 0
BBX 1 1 0 0
BITMAP
00
ENDCHAR
STARTCHAR product
ENCODING 8719
SWIDTH 521 0
DWIDTH 8 0
BBX 8 12 0 0
BITMAP
00122200
00889810
01897660
06677890
09839973
37897668
76683799
27997667
09865981
05679590
00998640
00866D00
ENDCHAR
STARTCHAR summation
ENCODING 8721
SWIDTH 108 0
DWIDTH 2 0
BBX 1 1 0 0
BITMAP
00
ENDCHAR
STARTCHAR minus
ENCODING 8722
SWIDTH 555 0
DWIDTH 9 0
BBX 9 4 0 5
BITMAP
2777777710
2777777710
2777777710
2666666610
ENDCHAR
STARTCHAR radical
ENCODING 8730
SWIDTH 108 0
DWIDTH 2 0
BBX 1 1 0 0
BITMAP
00
ENDCHAR
STARTCHAR infinity
ENCODING 8734
SWIDTH 108 0
DWIDTH 2 0
BBX 1 1 0 0
BITMAP
00
ENDCHAR
STARTCHAR integral
ENCODING 8747
SWIDTH 362 0
DWIDTH 6 0
BBX 6 16 0 -2
BITMAP
000473
008763
046963
076682
087740
087740
087740
087740
087740
087740
087740
087740
598730
596A00
48A200
110000
ENDCHAR
STARTCHAR approxequal
ENCODING 8776
SWIDTH 665 0
DWIDTH 11 0
BBX 11 7 0 5
BITMAP
069888837610
277888887900
665588889500
000000000000
069888837610
277888887900
665588889500
ENDCHAR
STARTCHAR notequal
ENCODING 8800
SWIDTH 473 0
DWIDTH 8 0
BBX 7 15 0 -2
BITMAP
00036880
00076670
00098630
289FFF80
27ADFF60
27DDDE60
14CBA730
01AAA110
2AEFF760
2FFFF880
2FFFC880
09980000
37890000
76670000
54320000
ENDCHAR
STARTCHAR lessequal
ENCODING 8804
SWIDTH 108 0
DWIDTH 2 0
BBX 1 1 0 0
BITMAP
00
ENDCHAR
STARTCHAR greaterequal
ENCODING 8805
SWIDTH 108 0
DWIDTH 2 0
BBX 1 1 0 0
BITMAP
00
ENDCHAR
STARTCHAR lozenge
ENCODING 9674
SWIDTH 521 0
DWIDTH 8 0
BBX 8 12 0 0
BITMAP
00122200
00889810
01897660
06677890
09839973
37897668
76683799
27997667
09865981
05679590
00998640
00866D00
ENDCHAR
STARTCHAR uniF8FF
ENCODING 63743
SWIDTH 108 0
DWIDTH 2 0
BBX 1 1 0 0
BITMAP
00
ENDCHAR
STARTCHAR uniFB01
ENCODING 64257
SWIDTH 962 0
DWIDTH 15 0
BBX 15 12 0 0
BITMAP
1222344442122220
4778B77773477880
4778B77773477880
4778B88884477880
4778800000477880
4778B88881477880
4778B88881477880
4778B77771477880
4778911110477880
4778800000477880
4778800000477880
4778800000477880
ENDCHAR
STARTCHAR uniFB02
ENCODING 64258
SWIDTH 1208 0
DWIDTH 19 0
BBX 19 12 0 0
BITMAP
12223444421222200000
4778B777734778800000
4778B777734778800000
4778B888844778800000
47788000004778800000
4778B888814778800000
4778B888814778800000
4778B777714778800000
47789111104778800000
47788000004778B88870
47788000004778B88870
47788000004778B88870
ENDCHAR
STARTCHAR .notdef
ENCODING -1
SWIDTH 108 0
DWIDTH 2 0
BBX 1 1 0 0
BITMAP
00
ENDCHAR
ENDFONT
